<svg width="290" height="65" viewBox="0 0 290 65" fill="none" xmlns="http://www.w3.org/2000/svg">
<g clip-path="url(#clip0)">
<path d="M70.6 56.8C70.5 56.9 70.5 56.9 70.6 56.8C70.6 56.9 70.7 56.9 70.6 56.8C70.6 56.9 70.6 56.8 70.6 56.8Z" fill="#8DD4B4"/>
<path d="M20 57C19.9 57 19.9 57.1 19.9 57.2C20 57.3 20.1 57.3 20.1 57.1C20.1 57 20 57 20 57Z" fill="#8DD4B4"/>
<path d="M31 0.0999756C30.9 0.0999756 30 0.799976 29.5 1.39998C28.8 1.99998 28.1 2.89998 28 2.99998C27.9 2.99998 27.3 3.79998 27.2 3.99998C27.2 4.09998 27 4.29998 26.8 4.49998C26 5.49998 24.8 7.59998 24.3 8.79998C24 9.49998 23.3 11.4 23.1 12.1C22.9 12.7 22.7 14.3 22.7 15C22.7 16.4 22.8 18.2 23.1 19C23.1 19.1 23.2 19.2 23.2 19.2C23.2 19.3 23.5 20.2 23.7 20.6C23.8 20.8 23.9 21 23.9 21C23.9 21.1 24.4 22.3 24.5 22.6C24.9 23.4 25.2 24.1 25.3 24.2C26.1 25.5 27.4 27.2 28.3 28.1C28.5 28.3 28.7 28.5 28.7 28.5C28.9 28.7 29.7 29.4 29.7 29.4C29.8 29.4 29.8 29.4 29.7 29.3C29.6 28.9 28.6 27.3 28.4 27.1C28.3 27 28.2 26.9 28.2 26.7C28 26.2 27.4 25.1 26.8 23.9C26.5 23.3 26.1 22.7 26 22.4C25.6 21.7 25.2 20.4 25 19C24.7 17.7 24.7 16.1 25 14.9C25.5 12.8 25.9 11.9 26.8 10.4C27.7 8.89997 28.2 8.19998 28.6 7.69998C29.1 7.19998 30.2 5.99998 30.6 5.69998C31.4 4.99998 31.5 4.89998 31.6 4.89998C31.7 4.89998 32 5.09998 32.5 5.49998C33.8 6.49998 35.5 7.79998 35.3 7.49998C35.2 7.39998 35.2 7.19998 35.1 7.09998C34.8 6.29998 34.1 4.89998 33.3 3.59998C33 2.69998 31.1 0.199976 31 0.0999756Z" fill="#8DD4B4"/>
<path d="M47.7 0C47.5 0 47.3 0.2 47.3 0.3C47.3 0.4 47.2 0.4 47.2 0.4C47.2 0.4 47 0.5 46.8 0.6C46.6 0.7 46.5 0.8 46.5 0.8C46.5 0.8 46.4 0.8 46.4 0.9C46.4 1 45.9 1.4 45.3 1.8C44.3 2.6 43.6 3.1 43.1 3.6C43 3.7 42.8 3.8 42.8 3.8C42.8 3.8 42.6 4 42.4 4.2C42.2 4.4 41.7 4.8 41.4 5.1C41 5.4 40.7 5.7 40.6 5.8C40.5 5.9 40.4 6 40.3 6C40.2 6 39.4 6.8 37.8 8.3C36.6 9.5 35.8 10.4 34.9 11.8C34 13.1 33.5 13.9 33.1 14.4C32.9 14.7 32.7 15 32.6 15.1C32 15.9 30.9 18.4 30.5 19.8C30.1 21 30.1 21.7 30.1 23.6C30.1 25.6 30.2 26.4 30.4 28.2C30.7 30.5 30.9 31.1 32.4 34C33.4 36.1 33.9 36.9 34.4 37.6C34.6 37.8 34.9 38.3 35.1 38.7C35.8 39.8 37.4 42.1 38.3 43.3C39.2 44.5 42.4 47.6 42.9 47.8C43 47.8 43.1 47.9 43.2 48.1C43.4 48.3 43.4 48.3 43.4 48.2C43.4 48.1 43.2 47.9 43 47.7C41.9 46.5 41.4 46 41.1 45.6C40.9 45.4 40.7 45.2 40.7 45.2C40.7 45.2 40.2 44.5 39.7 43.8C39 42.7 38.5 41.9 37.6 40.1C36.2 37.3 36 37 35.7 35.7C35.2 33.9 35 32.3 34.8 30.2C34.7 29 34.8 27.3 35 26.1C35.1 25.7 35.2 25.2 35.2 24.9C35.6 23 36.9 19.9 37.9 18.3C39.5 16 40.9 14.2 42.3 13C42.6 12.7 43.7 11.7 44.6 10.8C46.6 8.9 47.5 8.1 47.7 8.1C48 8.1 52.6 13 54.3 15.1C55.2 16.3 56.9 18.8 57.5 19.8C58.4 21.5 59.4 24 59.5 25.1C59.5 25.3 59.6 25.8 59.7 26.2C60 27.7 59.6 33.2 59.2 34.8C59.1 35.2 58.9 35.8 58.8 36C58.6 36.6 58.1 38 57.9 38.5C57.8 38.8 57.7 39 57.7 39C57.7 39.1 57.1 40.4 56.9 40.8C56.5 41.6 55.9 42.7 55.7 43.1C55.4 43.7 55.1 44.3 54.9 44.5C54.8 44.6 54.6 44.9 54.5 45.1C54.4 45.3 54.2 45.5 54.2 45.6C54.1 45.7 54 45.8 53.9 46C53.8 46.2 53.4 46.6 53.1 46.9C52.4 47.6 52.1 48 52.5 47.7C53 47.3 55.2 45.1 55.9 44.4C56.9 43.3 58.4 41.3 59 40.3C59.1 40.1 59.5 39.6 59.8 39.1C60.5 38.1 60.7 37.7 61.1 37C61.3 36.7 61.6 36.1 61.8 35.7C62.8 34 63.8 31.9 64 31C64.2 30.5 64.3 30 64.4 29.9C64.7 29 65.2 25.6 65.2 24C65.2 22.1 64.8 19.8 64.1 18.4C64 18.1 63.8 17.8 63.7 17.6C63.4 16.9 62.1 14.2 61.6 13.4C60.5 11.4 58.8 9.3 56.9 7.4C55.6 6.1 52.8 3.7 51.9 3C51.6 2.8 51.4 2.6 51.3 2.5C50.7 2 48.2 0.3 48.1 0.3C48.1 0.3 47.9 0.2 47.8 0.1C47.9 0 47.7 0 47.7 0Z" fill="#E05014"/>
<path d="M80.7 18.9C80.6 18.9 80.6 18.9 80.5 18.9C80.4 18.9 80.1 19.1 79.8 19.2C79.5 19.3 79.1 19.5 78.8 19.6C78.5 19.7 78.1 19.9 77.9 20C77.4 20.2 75.8 21 75.2 21.3C75 21.4 74.5 21.6 74.2 21.8C73.9 22 73.4 22.2 73.1 22.4C72.8 22.6 72.5 22.7 72.5 22.7C72.5 22.7 72.3 22.9 72 23.1C71.5 23.5 70.9 24 71 24.1C71 24.1 71.4 24 71.8 23.8C72.9 23.3 73.7 23.1 74.5 22.9C75.4 22.7 75.7 22.6 76.9 22.6H77.8V23.6C77.8 24.4 77.7 24.8 77.6 25.6C77.5 26.1 77.4 26.6 77.4 26.7C77.4 26.9 76.9 28.3 76.7 28.8C75.7 31.2 74.5 33 72.6 34.6C72.1 35 71.3 35.7 70.7 36C70.5 36.1 70.2 36.3 70.1 36.4C69.8 36.7 68.7 37.5 67.7 38.1C67 38.6 66.6 38.8 64.7 39.7C64.2 40 64 40.1 64.1 40.1C64.1 40.1 64.5 40 64.9 39.8C66.5 39.3 67.8 38.7 68.7 38.3C68.8 38.3 69 38.2 69.2 38C69.4 37.9 69.7 37.8 69.7 37.7C69.8 37.7 70 37.6 70.1 37.5C70.2 37.4 70.5 37.3 70.6 37.2C73.2 35.8 75.5 34 77.1 32.1C77.8 31.2 78.7 30 79 29.4C79.8 27.9 79.8 27.8 80.1 26.7C80.7 24.5 80.9 22.1 80.6 20C81 19.6 80.8 19 80.7 18.9Z" fill="#8DD4B4"/>
<path d="M15.1 19.2C15 19.2 14.9 19.2 14.9 19.3C14.9 19.4 14.8 19.4 14.8 19.4C14.7 19.3 14.7 19.5 14.6 20.4C14.6 20.9 14.5 21.4 14.5 21.6C14.5 21.9 14.6 24 14.6 24.4C14.7 25 15.3 27.1 15.6 28C15.9 28.7 16.2 29.6 16.5 30.1C16.6 30.3 16.8 30.6 16.8 30.7C16.8 30.8 17.2 31.3 17.5 31.8C18 32.6 18.2 32.9 18.9 33.6C19.2 34 20.5 35.2 21 35.6C21.8 36.3 23.9 37.6 25 38.1C25.5 38.3 26.8 38.9 27 38.9C27.1 38.9 27.6 39.1 28.2 39.3C29 39.6 30 39.9 30.5 40C30.5 40 30.5 39.9 30.4 39.9C30.3 39.8 29.5 39.3 28.6 38.7C27.9 38.3 25.9 36.9 25.4 36.6C25.3 36.5 25.1 36.4 25 36.3C24.8 36.2 24.2 35.7 24 35.5C23.6 35.2 23.1 34.7 22.9 34.6C22.3 34.1 21.5 33.3 20.9 32.5C20 31.3 18.8 29.2 18.4 28C17.8 26.4 17.4 24.5 17.4 23.8C17.4 23.5 17.3 22.4 17.2 22.3C17.2 22.2 17.3 22.2 17.7 22.3C18 22.3 18.3 22.4 18.4 22.4C18.5 22.4 18.6 22.5 18.7 22.5C19 22.5 20.9 23 21.8 23.3C22.6 23.6 23.6 24 24.7 24.5C25.3 24.8 25.3 24.8 24.1 23.6C22.8 22.3 21.1 21.2 18.8 20.2C17.6 19.7 16.2 19.3 15.3 19.2C15.2 19.2 15.1 19.2 15.1 19.2Z" fill="#8DD4B4"/>
<path d="M84.8 26.6C84.7 26.6 84.7 26.7 84.6 26.9C84.4 27.4 84 27.9 83.6 28.4C83.4 28.7 83 29.2 82.8 29.6C82.4 30.3 81.7 31.1 81.5 31.4C81.4 31.5 81.1 31.9 80.8 32.2C80 33.2 78.7 34.5 77.9 35.1C77.6 35.4 76.3 36.2 76.2 36.2C76.2 36.2 76.1 36.3 76 36.3C75.9 36.4 75.9 36.4 75.8 36.4C75.7 36.4 75.4 36.6 75 36.9C74.6 37.2 74.2 37.4 74.2 37.4L74.1 37.5C74 37.6 73.9 37.6 73.8 37.7C73.6 37.8 72.9 38.2 72.9 38.3C72.9 38.4 77.4 38.4 78.8 38.2C79.7 38.1 80.5 37.9 81.4 37.5C81.7 37.3 82 37.2 82 37.2C82 37.2 82.1 37.2 82.1 37.1C82.1 37.1 82.2 37 82.4 36.9C82.7 36.8 83.8 35.7 84.1 35.2C84.2 35 84.4 34.7 84.5 34.5C84.7 34.1 84.9 33.2 84.9 33.1C84.9 33.1 84.9 32.9 84.9 32.8C84.9 32.7 85 32 85 31.2C85 30.5 85.1 29.6 85.1 29.4C85.1 29.2 85.1 28.4 85.1 27.8C85 27 84.9 26.6 84.8 26.6Z" fill="#8DD4B4"/>
<path d="M11.2 27.2C11 27.2 11 27.2 10.9 28C10.6 30 10.6 32.5 10.9 33.4C11 33.8 11.4 34.7 11.7 35.1C12 35.6 13.2 36.7 13.7 37C14.3 37.3 15.2 37.7 15.6 37.8C15.8 37.8 16.1 37.9 16.3 38C16.9 38.2 20.4 38.5 21.4 38.4C21.6 38.4 21.8 38.4 22 38.4C22.3 38.4 22.3 38.2 22 38.1C21.6 38 19.8 36.9 19.2 36.4C18.6 36 17.8 35.1 17 34.2C16 33.1 14.5 31.3 13.9 30.5C13.6 30.1 13.6 30.1 13.4 29.9C13.2 29.6 11.6 27.5 11.5 27.3C11.4 27.2 11.3 27.2 11.2 27.2Z" fill="#8DD4B4"/>
<path d="M88.1 34.2C88.1552 34.2 88.2 34.1552 88.2 34.1C88.2 34.0448 88.1552 34 88.1 34C88.0448 34 88 34.0448 88 34.1C88 34.1552 88.0448 34.2 88.1 34.2Z" fill="#8DD4B4"/>
<path d="M88 34.3C87.9 34.3 87.9 34.3 87.9 34.4C87.6 34.8 87 35.6 86.2 36.2C85.4 36.9 85.2 37.1 84.3 37.6C83.2 38.4 83 38.5 82.7 38.6C82.5 38.7 82.3 38.8 82.2 38.8C82.1 38.9 81.9 38.9 81.9 38.9C81.9 38.9 81.5 39 81.2 39.1C79.7 39.7 76.8 40.1 73.3 40.3C72.9 40.3 72.6 40.4 72.6 40.4C72.6 40.4 72.1 40.5 71.6 40.5C71.1 40.5 70.3 40.6 69.8 40.7C69.3 40.8 68.5 40.9 68.1 40.9C66.7 41.1 66.5 41.1 65.5 41.4C64.4 41.7 63.8 41.9 63.2 42.1C62.1 42.5 60.2 43.6 59.2 44.2C59.1 44.3 58.8 44.4 58.7 44.5C58.4 44.7 57.7 45.1 56.9 45.7C56.3 46.1 54.4 48 53.9 48.5C53.8 48.7 53.6 48.8 53.6 48.9C53.5 48.9 53.3 49.2 53.1 49.5C52.9 49.8 52.6 50.1 52.5 50.2C52.3 50.4 52.3 50.6 52.4 50.6C52.4 50.6 52.6 50.5 52.8 50.4C53.5 49.9 55.1 49 55.9 48.6C56.4 48.3 57.6 47.8 57.7 47.8C57.7 47.8 57.8 47.8 57.9 47.7C58.1 47.6 59.2 47.2 59.8 47.1C61.5 46.6 62.1 46.5 63 46.4C63.4 46.4 63.8 46.3 63.8 46.3C63.9 46.3 64.6 46.2 65.5 46.2C67.3 46.1 70.3 45.9 71.1 45.7C71.4 45.6 71.8 45.6 72 45.5C72.8 45.4 73.1 45.3 73.4 45.2C73.6 45.1 74.2 45 74.8 44.9C76.2 44.6 76.8 44.4 77 44.3C77.1 44.2 77.2 44.2 77.3 44.2C77.4 44.2 77.6 44.1 77.8 44C79.8 43.3 82.3 42 82.6 41.5C82.7 41.4 82.7 41.4 82.7 41.5C82.7 41.9 82.6 42.1 82 43.2C81.8 43.5 81.5 44.1 81.3 44.5C81.1 44.9 80.8 45.4 80.8 45.5C80.7 45.6 80.5 46 80.3 46.4C80.1 46.8 79.8 47.2 79.6 47.4C79.4 47.6 79.3 47.8 79.2 47.9C79.1 48.2 78 49.5 77.3 50.1C76.6 50.8 76.5 50.9 74.8 51.9C72.9 53.1 71.6 53.7 70 54C69.7 54.1 69 54.2 68.6 54.3C67.9 54.4 67.1 54.5 64.6 54.8C64.4 54.8 64.3 54.9 64.3 54.9C64.4 55 66.4 55.4 67.2 55.4C67.9 55.5 69.4 55.5 70.4 55.4C72.2 55.3 72.5 55.2 73.4 55C73.7 54.9 74 54.9 74.1 54.8C74.2 54.8 74.3 54.7 74.3 54.7C74.3 54.7 74.7 54.5 75 54.4C76.8 53.8 78.6 52.8 80 51.6C80.6 51.1 82.6 49.1 82.9 48.7C83 48.6 83.2 48.3 83.4 48.1C83.6 47.9 83.9 47.4 84.2 46.9C84.5 46.4 84.9 45.9 85 45.7C85.2 45.3 85.9 44 86.4 43C86.9 41.9 87.6 39.5 87.8 38.1C87.9 37.6 88 36.9 88 36.6C88 36.3 88.1 35.5 88.1 35C88.1 34.4 88.1 34.3 88 34.3Z" fill="#8DD4B4"/>
<path d="M8.09999 35.5C7.99999 35.6 7.99999 37.8 8.09999 38.6C8.19999 39.8 8.69999 42.3 8.99999 42.8C8.99999 42.9 9.09999 43.1 9.19999 43.3C9.39999 43.8 9.59999 44.3 9.79999 44.7C9.89999 44.8 9.89999 45 9.99999 45.1C10.1 45.5 10.9 46.9 11.6 47.7C13 49.6 14.1 50.8 15.7 51.9C15.9 52 16.1 52.2 16.2 52.3C16.3 52.4 16.5 52.5 16.5 52.5C16.5 52.5 16.7 52.6 16.8 52.7C17 52.8 17.1 52.9 17.1 52.9C17.1 52.9 17.3 53 17.6 53.2C18.1 53.5 19.3 54.1 19.8 54.3C20.5 54.6 21.4 54.8 21.8 54.9C22.1 55 22.4 55 22.6 55.1C24.2 55.5 26.7 55.7 28 55.6C28.3 55.6 28.9 55.5 29.4 55.4C29.9 55.3 30.5 55.3 30.8 55.2C31.5 55.1 33 54.7 33.3 54.6L33.5 54.5H33.3C32.6 54.6 31.2 54.7 30.7 54.6C28.2 54.4 27.9 54.4 26.7 54.2C25.2 54 24 53.6 22.9 53.1C22.8 53 22.5 52.9 22.2 52.8C21.7 52.6 20.7 52 20.1 51.6C19.2 51.1 18.6 50.6 17.5 49.5C16.3 48.3 16 48 14.8 46.3C14.4 45.7 14 45.2 13.9 45.1C12.6 43.3 11.8 41.6 12 41.4C12 41.4 12.2 41.5 12.3 41.6C12.5 41.7 12.6 41.8 12.7 41.9C13.5 42.4 13.9 42.7 14.2 42.9C14.4 43 14.6 43.1 14.7 43.2C14.8 43.3 14.8 43.3 14.9 43.3C15 43.3 15.1 43.4 15.2 43.4C15.3 43.5 15.8 43.7 16.2 43.8C16.6 44 17 44.2 17.1 44.2C17.7 44.5 19.2 45 19.9 45.1C21.4 45.4 22.3 45.5 24.7 45.6C25.4 45.6 26.3 45.7 26.6 45.7C26.9 45.7 27.8 45.8 28.5 45.9C31.5 46.2 33 46.4 33.7 46.6C33.8 46.6 34.1 46.7 34.3 46.7C35.9 47 38.1 47.9 40.4 49.2C41.1 49.6 42.2 50.3 42.4 50.5C42.6 50.7 43.2 51 43.3 51C43.4 50.9 42.1 49.4 41.2 48.5C39.9 47.2 37.7 44.9 37.3 44.7C34.4 42.7 34 42.5 31.7 41.9C30.4 41.6 30.5 41.6 30 41.5C29.7 41.4 29.3 41.4 29.1 41.3C28.7 41.2 27.5 41 26.8 40.9C26.7 40.9 26.4 40.8 26.1 40.8C25.8 40.7 25.1 40.6 24.6 40.6C24 40.5 23.4 40.4 23.2 40.4C23 40.4 22.5 40.3 22.1 40.3C21.7 40.3 21.1 40.2 20.7 40.2C20.3 40.2 19.5 40.1 19 40.1C14.8 39.8 13.4 39.5 11.4 38.1C10.8 37.7 9.29999 36.3 8.69999 35.7C8.29999 35.6 8.19999 35.5 8.09999 35.5Z" fill="#8DD4B4"/>
<path d="M30.8 40.1C30.7 40.1 30.7 40.1 30.8 40.1C30.9 40.3 30.9 40.3 30.9 40.2C30.9 40.1 30.8 40.1 30.8 40.1Z" fill="#8DD4B4"/>
<path d="M36.4 42.5C36.4 42.5 36.5 42.5 36.4 42.5C36.5 42.7 36.6 42.7 36.6 42.7C36.6 42.6 36.6 42.6 36.4 42.5C36.5 42.5 36.4 42.5 36.4 42.5Z" fill="#8DD4B4"/>
<path d="M86.8 48C86.7 48 86.7 48 86.8 48C86.8 48.2 87.3 48.6 88.3 49.4C89 49.9 89.7 50.6 89.7 50.7C89.7 50.8 89.7 50.9 89.6 50.9C89.4 51.3 88.2 52.3 87.5 52.8C87.4 52.9 87.1 53.1 87 53.2C85.8 54.1 85.5 54.3 84.5 54.7C83.6 55.1 82 55.7 80.5 56C80.2 56.1 79.8 56.2 79.5 56.2C79 56.3 78.2 56.5 77.2 56.6C76.7 56.7 76.6 56.7 74.7 56.8C73.5 56.9 73.3 56.9 73.4 57C73.5 57.1 74.8 57.4 75.5 57.5C76.4 57.7 77.1 57.7 78.5 57.8C79.1 57.8 79.8 57.9 80.1 57.9C80.4 57.9 80.7 57.9 80.8 57.9C80.9 57.9 81.2 57.9 81.6 57.8C82.7 57.7 83.7 57.6 85.1 57.2C85.4 57.1 85.7 57 85.9 57C86.1 57 86.6 56.7 87.1 56.5C87.2 56.5 87.4 56.3 87.7 56.2C88 56 88.3 55.9 88.3 55.8C88.4 55.7 88.6 55.6 88.8 55.4C89 55.3 89.6 54.8 90.1 54.3C91 53.4 91.5 52.9 92.4 51.7C92.6 51.4 92.9 51 93 50.9C93.3 50.6 93.2 50.5 92.9 50.3C92.7 50.2 92.2 50 91.8 49.8C91.3 49.6 90.8 49.3 90.7 49.3C90.1 49 89 48.5 88.4 48.3C88 48.2 87.7 48 87.6 48C87.5 48 87.4 47.9 87.2 47.9C86.8 48 86.8 48 86.8 48Z" fill="#8DD4B4"/>
<path d="M8.20001 48.8C8.10001 48.8 7.90001 48.8 7.60001 48.9C6.60001 49.1 6.10001 49.3 5.60001 49.5C5.30001 49.6 4.90001 49.8 4.70001 49.8C4.50001 49.9 4.20001 50 4.20001 50C4.10001 50 3.80001 50.2 3.50001 50.3C3.20001 50.4 2.80001 50.6 2.70001 50.7C2.60001 50.9 2.40001 51 2.40001 51C2.30001 51 2.30001 51.2 2.40001 51.3C2.50001 51.4 2.50001 51.4 2.50001 51.5C2.50001 51.5 2.60001 51.6 2.60001 51.7C2.70001 51.8 2.80001 51.9 2.90001 52.1C3.10001 52.4 4.00001 53.4 4.20001 53.6C4.30001 53.7 4.50001 53.8 4.60001 54C4.80001 54.2 5.00001 54.3 5.10001 54.4C5.20001 54.5 5.50001 54.7 5.80001 54.9C7.50001 56.1 8.30001 56.6 9.70001 57.2C10.4 57.5 11.9 57.9 12.7 58C13.9 58.2 16.6 58.2 18.4 58.1C18.9 58.1 19.3 58 19.4 58C20.8 57.8 21.4 57.6 21.8 57.5C22 57.1 22 57 21.9 57C21.8 57 21.6 56.9 21.4 56.9C20.5 56.9 18.2 56.6 17.1 56.4C16.9 56.3 16.2 56.2 15.6 56.1C14.4 55.9 14.2 55.8 12.8 55.4C11.7 55 11.6 55 10 54.2C8.60001 53.5 7.50001 52.7 5.80001 51.4L5.60001 51.3L6.20001 50.8C6.50001 50.5 7.10001 50.1 7.40001 49.8C7.70001 49.5 8.10001 49.2 8.20001 49.1C8.40001 48.9 8.40001 48.9 8.30001 48.8C8.40001 48.9 8.30001 48.8 8.20001 48.8Z" fill="#8DD4B4"/>
<path d="M51 49.2C51 49.2 50.9 49.3 51 49.2C50.9 49.3 50.9 49.3 51 49.3C51.1 49.3 51 49.3 51 49.2C51.1 49.3 51 49.2 51 49.2Z" fill="#8DD4B4"/>
<path d="M50.6 49.7C50.6552 49.7 50.7 49.6552 50.7 49.6C50.7 49.5448 50.6552 49.5 50.6 49.5C50.5448 49.5 50.5 49.5448 50.5 49.6C50.5 49.6552 50.5448 49.7 50.6 49.7Z" fill="#8DD4B4"/>
<path d="M50.7 52.4C50.7 52.4 50.7 52.4 50.8 52.5C51 52.8 52.9 54.5 53.5 54.9C53.7 55 54.1 55.3 54.4 55.6C55.1 56.1 55.3 56.3 56.5 57C58.1 57.9 59.9 58.6 60.9 58.9C61.3 59 61.6 59.1 61.7 59.1C61.8 59.1 62.1 59.2 62.3 59.2C62.8 59.3 63.1 59.4 63.1 59.5C63.1 59.6 61.9 60.2 61.4 60.4C60.3 60.8 59.4 60.9 57.7 60.9C56.2 60.9 56.1 60.9 55.1 60.6C53.8 60.2 53.2 59.7 51.7 58.2C50.1 56.6 49.6 55.9 49.2 55C49.1 54.8 49 54.6 48.9 54.6C48.8 54.6 48.8 54.5 48.7 54.4L48.6 54.2L48.5 54.9C48.3 56 48.3 56.9 48.5 57.6C48.9 59.1 49.7 60.4 51 61.8C51.7 62.5 51.9 62.7 52.7 63.2C53.7 63.9 54.3 64.2 54.5 64.3C54.6 64.3 54.9 64.4 55.2 64.6C55.8 64.9 56.5 65 57.8 65.1C58.6 65.2 60.9 65.1 61.4 65C62.7 64.7 64.4 64 65.4 63.4C66.2 62.9 67.4 61.6 68.1 60.7C68.3 60.5 68.6 60 68.8 59.8C69.4 59 70.1 57.9 70.1 57.6C70.1 57.6 70.1 57.5 70.2 57.5C70.3 57.5 70.3 57.5 70.3 57.4C70.3 57.3 69.6 57.3 68.8 57.4C67.3 57.6 64.9 57.5 63.9 57.2C63.7 57.2 63.3 57 62.9 56.9C62.1 56.7 60.8 56.3 60.2 56.1C59.6 55.9 58.3 55.4 58 55.2C57.8 55.1 57.6 55 57.4 54.9C57.2 54.8 56.9 54.7 56.8 54.6C56.7 54.5 55.9 54.2 55.1 53.9C53.6 53.3 53 53 52.5 52.8C52.3 52.7 52.2 52.7 52.2 52.7C52.2 52.7 51.9 52.6 51.6 52.5C51.3 52.4 51 52.3 50.9 52.2C50.8 52.4 50.7 52.4 50.7 52.4Z" fill="#8DD4B4"/>
<path d="M44.8 52.5C44.7 52.5 44.5 52.6 44 52.8C43.6 53 42.9 53.3 42.6 53.5C42.2 53.7 41.7 53.9 41.5 54C41.3 54.1 40.8 54.3 40.5 54.4C40.2 54.5 39.6 54.8 39.3 54.9C38 55.4 35.1 56.4 34.3 56.6C34.2 56.6 33.9 56.7 33.7 56.8C32.8 57.1 30.8 57.4 29.9 57.5C29.1 57.6 27.3 57.7 25.7 57.7C25.4 57.7 25.2 57.7 25.2 57.8C25.2 57.9 25.5 58.5 25.9 59.3C26.5 60.5 26.8 60.9 27.1 61.4C27.1 61.5 27.4 61.7 27.6 61.9C28.1 62.4 28.6 62.8 29.3 63.2C29.6 63.4 29.8 63.5 29.9 63.6C30 63.7 30 63.7 30.1 63.7C30.2 63.7 30.5 63.8 30.7 64C31.2 64.3 32.1 64.5 32.7 64.7C32.9 64.8 33.2 64.8 33.4 64.9C33.6 65 34 65 35 65.2C35.2 65.2 36.3 65.2 36.8 65.1C37 65.1 37.3 65 37.4 65C37.5 65 37.8 64.9 38 64.9C38.2 64.8 38.5 64.7 38.8 64.7C39.9 64.4 40.9 64 41.4 63.6C41.5 63.5 41.8 63.3 42 63.2C43.1 62.5 44.7 60.7 45.6 59.2C46.2 58.2 46.5 57.5 46.6 56.5C46.7 55.9 46.6 54.7 46.5 54.6C46.5 54.6 46.4 54.7 46.2 54.9C45.7 55.7 45.5 56 45.1 56.5C44.9 56.8 44.6 57.1 44.5 57.3C43.9 58 42.6 59.3 41.9 59.9C41 60.6 39.6 61.3 38.6 61.5C37.4 61.8 35.9 61.7 34.2 61.1C33.8 60.9 32.9 60.5 32.6 60.3C32.4 60.2 32 59.9 31.8 59.7C31.6 59.5 31.3 59.3 31.3 59.3C31.4 59.2 31.5 59.2 32.7 59.1C33.4 59 34 58.9 34.7 58.7C35.3 58.5 36.8 57.8 37.7 57.3C37.9 57.1 38.5 56.9 38.9 56.6C39.3 56.4 39.8 56.1 40.1 55.9C40.4 55.7 40.8 55.5 40.9 55.4C41.1 55.3 41.4 55.1 41.6 55C41.8 54.9 42.2 54.6 42.6 54.4C43.1 54.1 43.9 53.5 44.6 52.9C44.8 52.6 44.9 52.5 44.8 52.5Z" fill="#8DD4B4"/>
<path d="M66.6 0.599976C66.7 0.599976 67.5 1.39998 67.9 1.89998C68.4 2.59998 69 3.49998 69 3.59998C69 3.59998 69 3.69998 69.1 3.69998C69.2 3.69998 69.6 4.49998 69.7 4.69998C69.7 4.79998 69.9 4.99998 70 5.19998C70.6 6.29998 71.5 8.39998 71.9 9.59998C72.1 10.3 72.6 12.2 72.7 12.9C72.8 13.5 72.9 15.1 72.8 15.7C72.7 17 72.4 18.8 72.2 19.5C72.2 19.6 72.1 19.7 72.1 19.7C72.1 19.8 71.7 20.7 71.6 21C71.5 21.2 71.4 21.3 71.4 21.4C71.3 21.5 70.8 22.7 70.7 22.8C70.3 23.5 70 24.1 69.9 24.2C69.1 25.4 67.8 26.9 66.9 27.7C66.7 27.9 66.5 28 66.5 28.1C66.3 28.3 65.6 28.9 65.5 28.9C65.4 28.9 65.4 28.9 65.5 28.8C65.7 28.5 66.6 27 66.8 26.8C66.9 26.7 67 26.6 67 26.4C67.2 26 67.8 24.9 68.5 23.9C68.8 23.4 69.2 22.8 69.3 22.5C69.7 21.8 70.1 20.6 70.5 19.3C70.8 18 71 16.5 70.8 15.3C70.5 13.3 70.3 12.3 69.6 10.8C68.9 9.29998 68.5 8.49998 68.2 8.09998C67.8 7.59998 66.9 6.29998 66.6 5.99998C65.9 5.09998 65.8 4.99998 65.7 4.99998C65.6 4.99998 65.3 5.19998 64.8 5.49998C63.6 6.39998 61.9 7.39998 62.1 7.19998C62.2 7.09998 62.2 6.99998 62.3 6.79998C62.6 6.09998 63.4 4.79998 64.2 3.49998C64.7 2.99998 66.5 0.599976 66.6 0.599976Z" fill="#8DD4B4"/>
<path d="M52.3 30.3C52.2 30.3 52.2 30.3 52.3 30.3C52.2 30.4 52.7 30.9 53.5 31.8C54.1 32.4 54.7 33.1 54.7 33.2C54.7 33.3 54.7 33.3 54.6 33.4C54.3 33.7 53 34.3 52.2 34.5C52 34.6 51.8 34.6 51.6 34.7C50.2 35.2 49.9 35.3 48.9 35.5C48 35.7 46.2 35.8 44.7 35.8C44.4 35.8 43.9 35.8 43.6 35.8C43.1 35.8 42.3 35.7 41.3 35.6C40.8 35.5 40.7 35.5 38.8 35.3C37.6 35.1 37.4 35.1 37.4 35.2C37.5 35.3 38.7 35.8 39.4 36.1C40.2 36.4 40.9 36.6 42.3 37C42.9 37.2 43.6 37.3 43.8 37.4C44 37.5 44.4 37.6 44.4 37.6C44.4 37.6 44.8 37.7 45.2 37.7C46.3 37.9 47.3 37.9 48.7 37.9C49 37.9 49.4 37.9 49.5 37.9C49.7 37.9 50.3 37.8 50.8 37.7C50.9 37.7 51.2 37.6 51.4 37.5C51.7 37.4 52 37.3 52.1 37.3C52.2 37.3 52.4 37.2 52.7 37.1C52.9 37 53.6 36.7 54.2 36.4C55.3 35.9 55.8 35.5 56.9 34.7C57.2 34.5 57.5 34.2 57.6 34.2C57.9 34 57.9 33.9 57.6 33.7C57.4 33.6 57 33.3 56.6 33C56.2 32.7 55.7 32.4 55.6 32.3C55 31.9 54.1 31.3 53.5 31C53.2 30.8 52.9 30.6 52.8 30.6C52.7 30.6 52.6 30.5 52.5 30.4C52.4 30.3 52.3 30.3 52.3 30.3Z" fill="#E05014"/>
<path d="M69.9 27.1C69.9 27.3 70 27.8 70.1 28.6C70.2 29.4 70.3 30 70.3 30.2C70.3 30.5 70.4 30.9 70.5 31.6C70.6 32.3 70.7 32.8 70.8 33.1C70.9 33.4 71 33.9 71.1 34.4C71.2 34.9 71.3 35.4 71.5 35.8C71.6 36.2 71.8 36.6 71.9 37C72.5 38.6 73.6 40 75.1 41.2C75.4 40.4 75.8 39.5 76.1 38.6C77.6 34.2 78.9 30.2 79.8 26.6C79.9 26.4 79.9 26.2 79.9 26.2C79.9 26.2 79.9 26.1 80 25.9C80.1 25.8 80.1 25.7 80.1 25.7C80.1 25.7 80.2 25.7 80.3 25.6C80.4 25.6 80.5 25.5 80.6 25.5C80.7 25.5 80.8 25.5 81 25.6C81.2 25.7 81.4 25.7 81.5 25.8C81.7 25.9 81.9 26 82.1 26.2C82.3 26.4 82.4 26.5 82.3 26.7C81.8 27.8 80.8 30.2 79.5 33.9C78.1 37.6 77.1 40.3 76.4 42.1C76.7 42.3 76.9 42.5 76.9 42.6C76.9 42.7 76.9 42.9 76.7 43.3C76.6 43.4 76.5 43.6 76.4 43.7C76.3 43.8 76.1 44 75.9 44.2C75.7 44.4 75.5 44.4 75.4 44.4C75.2 44.8 75.1 45.2 74.9 45.5C74 47.6 73.1 49.2 72.1 50.1C71.3 50.8 70.4 51.1 69.5 51C68.5 50.9 67.6 50.5 66.7 49.7C66.4 49.4 66.3 49.2 66.3 48.9C66.3 48.7 66.5 48.4 66.8 48.2C67 48.1 67.1 48 67.3 47.9C67.5 47.8 67.7 47.7 67.9 47.7C68.1 47.7 68.3 47.7 68.4 47.9C68.8 48.6 69.2 49.1 69.5 49.4C69.8 49.6 70.1 49.7 70.4 49.5C71.2 49 72.1 47.8 73.1 45.8C73.5 45 73.9 44.1 74.4 43.2C72.2 40.7 70.7 38 69.8 35C69.7 34.6 69.4 33.5 69.1 31.8C68.7 30.1 68.4 28.8 68 27.9C67.8 27.5 67.8 27.2 67.8 27C67.9 26.8 68.1 26.6 68.5 26.5C68.7 26.4 69 26.4 69.4 26.4C69.6 26.7 69.9 26.8 69.9 27.1Z" fill="#E05014" stroke="#E05014" stroke-width="0.5" stroke-miterlimit="10"/>
<path d="M89.9 29.9C88.8 33.8 88.6 37 89.2 39.4C89.4 40.3 89.8 41 90.4 41.7C90.9 42.4 91.6 42.8 92.2 43.1C92.9 43.4 93.7 43.5 94.5 43.3C95.3 43.1 96 42.8 96.6 42.2C97.3 41.6 97.8 40.7 98.1 39.5C98.5 38.4 98.6 37.2 98.6 36.1C98.6 35.2 98.4 33.9 98.1 32.2C97.8 30.5 97.6 29.4 97.5 28.9C97.4 28.4 97.4 28 97.4 27.8C97.5 27.6 97.7 27.4 98.2 27.4C98.4 27.4 98.7 27.4 99.1 27.4C99.5 27.4 99.8 27.6 99.8 27.9C99.8 28.6 99.9 30.1 100.1 32.2C100.3 34.4 100.4 36.1 100.3 37.4C100.3 38.3 100.1 39.3 99.7 40.2C99.4 41.1 98.9 41.9 98.4 42.5C97.7 43.4 96.8 44 95.9 44.5C94.9 45 94 45.1 93.1 44.9C91.8 44.7 90.6 43.9 89.5 42.6C88.4 41.3 87.6 39.8 87.2 37.9C87.1 37.5 87 37.1 87 36.6C87 36.1 86.9 35.7 86.9 35.4C86.9 35 86.9 34.6 87 34C87.1 33.4 87.1 33 87.2 32.7C87.2 32.4 87.3 31.9 87.4 31.3C87.5 30.7 87.6 30.2 87.6 30C87.7 29.6 87.8 29.3 87.9 29.2C88 29.1 88.3 29 88.7 29.1C88.9 29.1 89.1 29.2 89.3 29.2C89.5 29.2 89.7 29.4 89.9 29.6C89.9 29.5 90 29.7 89.9 29.9Z" fill="#E05014" stroke="#E05014" stroke-width="0.5" stroke-miterlimit="10"/>
<path d="M105.4 33.6C105.4 31.7 105.3 30.3 105.1 29.3C105.1 28.9 105.1 28.6 105.2 28.4C105.3 28.2 105.6 28.1 106 28.1C106.2 28.1 106.4 28.1 106.6 28.2C106.8 28.2 107 28.3 107.2 28.4C107.4 28.5 107.5 28.7 107.4 28.9C107.3 29.4 107.3 29.9 107.2 30.4C107.6 30 108 29.6 108.4 29.3C109.2 28.7 110.5 28.2 112.5 27.7C112.9 27.6 113.3 27.5 113.5 27.6C113.7 27.7 113.8 27.9 113.9 28.4C114 28.5 114 28.8 113.9 29.3C113.8 29.8 113.7 30 113.4 30C111 29.9 109.2 30.3 108.2 31.4C107.4 32.3 107 33.5 107.1 34.9C107.1 35.3 107.1 35.6 106.9 35.7C106.9 36.8 107 37.9 107.1 39.1C107.3 41.6 107.6 43.8 108.1 45.7C108.3 46.1 108.4 46.5 108.3 46.7C108.2 46.9 108 47.1 107.6 47.2C107.5 47.2 107.4 47.2 107.2 47.3C107.1 47.3 106.9 47.4 106.7 47.4C106.5 47.4 106.3 47.4 106.2 47.3C106.1 47.2 106 47.1 106 47C105.9 45.9 105.8 44.3 105.7 41.9C105.6 39.6 105.5 37.7 105.4 36.5C105.4 36.3 105.4 36.1 105.4 35.9C104.8 35.7 104.6 35.5 104.7 35.1C104.9 34.6 105.1 34.1 105.4 33.6Z" fill="#E05014" stroke="#E05014" stroke-width="0.5" stroke-miterlimit="10"/>
<path d="M119.8 28.5C120.6 30.2 121.4 32.1 122.1 34.1C122.6 35.4 123.2 37.2 124 39.5C124.1 39.8 124.3 40.3 124.7 40.9C125 41.5 125.2 42 125.4 42.3C125.4 42.1 125.5 41.8 125.5 41.6C126.5 37.7 128.2 33.2 130.7 28.3C130.7 28.2 130.8 28.1 130.8 28C130.9 27.9 130.9 27.8 130.9 27.7C130.9 27.7 131 27.6 131 27.5C131.1 27.4 131.1 27.4 131.1 27.3C131.1 27.3 131.2 27.3 131.2 27.2C131.3 27.2 131.3 27.2 131.4 27.2C131.5 27.2 131.5 27.2 131.6 27.2C131.7 27.2 131.8 27.3 131.9 27.3C132.1 27.4 132.2 27.5 132.4 27.6C132.6 27.7 132.7 27.9 132.9 28.1C133.1 28.3 133.1 28.5 133 28.6C131.5 30.7 130.2 32.8 129.1 35C128.5 36.1 128.1 37.3 127.7 38.5C127.7 38.6 127.4 39.7 126.9 41.8C126.9 41.9 126.8 42.1 126.8 42.4C126.7 42.7 126.7 42.9 126.7 43C126.7 43.1 126.6 43.3 126.5 43.5C126.4 43.7 126.4 43.9 126.3 44C126.2 44.1 126.2 44.3 126.1 44.4C125.8 44.8 125.4 44.8 124.9 44.7C124.4 44.5 124 44.1 123.8 43.5C123.6 42.9 123.1 41.7 122.5 40.1C121.9 38.4 121.4 37.2 121.1 36.3C120.8 35.5 120.3 34.4 119.7 33.2C119.1 32 118.6 30.9 118 30C117.8 29.6 117.7 29.4 117.7 29.2C117.7 29 117.9 28.8 118.2 28.6C118.3 28.5 118.5 28.4 118.7 28.3C118.9 28.2 119.1 28.2 119.4 28.2C119.6 28.2 119.7 28.3 119.8 28.5Z" fill="#E05014" stroke="#E05014" stroke-width="0.5" stroke-miterlimit="10"/>
<path d="M152.9 40.8C152.4 41.5 151.8 42.2 151 42.9C150.2 43.6 149.3 44.1 148.3 44.6C147.3 45.1 146.2 45.3 145.2 45.1C143.9 44.9 142.7 44.3 141.6 43.2C140.5 42.1 139.6 40.9 138.9 39.4C138.7 38.9 138.5 38.4 138.3 37.9C138 37.8 137.9 37.5 137.9 37C137.9 36.8 137.9 36.7 138 36.5C137.7 34.6 137.9 32.9 138.6 31.3C139.2 29.9 140.2 28.8 141.6 28C143 27.2 144.4 26.8 145.8 26.9C146.7 27 147.6 27.3 148.5 27.8C149.4 28.3 150.1 29 150.6 29.7C151.3 30.6 151.6 31.7 151.5 33C151.4 34.2 151 35.2 150.2 35.9C148.3 37.6 144.9 38.4 140.1 38C140.7 39.5 141.5 40.8 142.7 41.9C143.3 42.5 144 42.9 144.9 43.1C145.8 43.3 146.5 43.3 147.3 43.1C147.9 42.9 148.5 42.5 149.1 41.9C149.7 41.3 150.2 40.6 150.6 39.8C150.8 39.4 151 39.2 151.1 39.1C151.2 39 151.5 39.1 151.9 39.2C152.2 39.3 152.5 39.5 152.7 39.8C153 40.3 153 40.5 152.9 40.8ZM139.6 35.9C141.7 36.5 143.6 36.6 145.2 36.4C146.5 36.2 147.6 35.8 148.6 35.1C149.6 34.4 150.1 33.7 150.2 32.9C150.3 32.4 150.1 31.9 149.8 31.3C149.4 30.7 148.9 30.1 148.2 29.7C146.9 28.8 145.7 28.4 144.5 28.6C143.4 28.8 142.4 29.3 141.5 30.2C140.5 31.1 139.9 32.1 139.7 33.2C139.5 34 139.4 34.9 139.6 35.9Z" fill="#E05014" stroke="#E05014" stroke-width="0.5" stroke-miterlimit="10"/>
<path d="M172 20.9C171.1 24.9 170.8 30.2 171.4 36.8C171.7 40.8 172.1 44 172.7 46.5C172.8 46.9 172.9 47.3 172.9 47.5C172.9 47.7 172.6 47.9 172.2 48C172 48.1 171.7 48.1 171.5 48.1C170.5 48.2 170 48.1 170 47.6C169.8 45 169.6 42.6 169.3 40.5C168.6 41.9 167.8 42.9 167 43.7C166.5 44.2 165.9 44.6 165.1 44.8C164.4 45 163.7 45.1 163 45C162.3 44.9 161.7 44.7 161 44.3C160.4 43.9 159.9 43.4 159.5 42.8C158.7 41.7 158.2 40.4 157.9 38.9C157.6 37.4 157.6 36 157.9 34.5C158.2 33.2 158.8 32 159.8 30.9C160.8 29.8 161.9 29.1 163.2 28.7C164.1 28.4 165.1 28.5 166.2 29C167.3 29.5 168.1 30.3 168.7 31.2C169.1 31.9 169.5 32.7 169.8 33.7C169.8 33.1 169.7 32.6 169.7 32C169.6 30.1 169.6 28.8 169.6 28C169.6 27.2 169.6 26 169.7 24.3C169.7 22.6 169.8 21.5 169.8 21C169.8 20.6 169.9 20.3 170 20.1C170.2 20 170.4 19.9 170.8 20C171 20 171.2 20.1 171.4 20.1C171.6 20.2 171.8 20.3 172 20.4C171.9 20.5 172 20.7 172 20.9ZM168.5 36.3C168.2 35.1 167.9 33.9 167.6 32.8C167.2 31.5 166.5 30.6 165.6 30.1C165.2 29.9 164.8 29.8 164.2 29.8C163.7 29.8 163.2 30 162.7 30.2C161.7 30.8 160.9 31.6 160.3 32.5C159.7 33.4 159.3 34.5 159.1 35.6C158.9 37.1 159.1 38.6 159.7 39.9C160.1 40.7 160.5 41.3 161.1 41.9C161.6 42.4 162.2 42.8 162.8 42.9C163.3 43 163.9 42.9 164.5 42.6C165.1 42.3 165.7 41.8 166.3 41.1C167 40.3 167.6 39 168.1 37.2C168.1 37.1 168.2 36.9 168.2 36.8C168.2 36.7 168.3 36.5 168.3 36.4C168.4 36.5 168.4 36.4 168.5 36.3Z" fill="#E05014" stroke="#E05014" stroke-width="0.5" stroke-miterlimit="10"/>
<path d="M177.5 33.2C177.5 32.3 177.9 31.3 178.6 30.4C179.3 29.5 180.1 28.9 181.1 28.6C183 28.1 184.5 28 185.6 28.3C187.1 28.7 188.2 29.5 188.9 30.8C189.7 32.1 190.1 33.5 190.1 35.1C190.1 35.3 190.1 35.8 190.1 36.5C190.1 37.2 190.1 37.7 190.1 37.9C190.1 38.1 190.1 38.6 190.1 39.2C190.1 39.8 190.1 40.3 190.2 40.6C190.2 40.9 190.3 41.3 190.3 41.8C190.3 42.3 190.4 42.8 190.5 43.1C190.6 43.4 190.6 43.9 190.7 44.3C190.8 44.8 190.9 45.2 191 45.6C191.2 46 191.2 46.4 191.2 46.6C191.2 46.8 190.9 47 190.5 47.1C190.3 47.1 190.2 47.2 190 47.2C189.8 47.2 189.6 47.2 189.3 47.2C189 47.2 188.9 47 188.9 46.9C188.8 46.2 188.8 45.4 188.8 44.6C186.9 45.2 184.8 45.4 182.4 45.2C182.4 45.2 182.2 45.2 181.9 45.1C181.6 45.1 181.4 45.1 181.3 45.1C181.2 45.1 181.1 45.1 180.8 45C180.5 45 180.3 44.9 180.2 44.9C180.1 44.9 179.9 44.8 179.7 44.8C179.5 44.7 179.3 44.7 179.2 44.6C179.1 44.5 178.9 44.5 178.7 44.4C178.5 44.3 178.4 44.2 178.2 44.1C177.6 43.7 177.2 43 177 42.2C176.8 41.4 177 40.6 177.3 39.9C177.7 39 178.4 38.1 179.3 37.3C180.2 36.5 181.2 35.9 182.3 35.4C184 34.7 186 34.7 188.5 35.2C188.4 33.5 188.1 32.1 187.7 30.7C187.6 30.2 187 29.9 186 29.7C185 29.5 184.1 29.6 183.1 29.7C182.1 29.9 181.2 30.2 180.6 30.6C180 31 179.7 31.6 179.7 32.1C179.7 32.5 179.7 32.8 179.6 33C179.5 33.2 179.3 33.3 178.9 33.3C178.7 33.4 178.4 33.4 178 33.3C177.6 33.2 177.5 33.5 177.5 33.2ZM188.4 37.9C186.3 36.9 184.3 36.7 182.4 37.4C181.2 37.8 180.2 38.6 179.5 39.6C179 40.2 178.7 40.9 178.6 41.5C178.5 42.1 178.5 42.5 178.8 42.7C179.9 43.3 181.3 43.6 183 43.7C184.7 43.8 186.3 43.5 187.6 42.9C187.8 42.8 187.9 42.7 188.1 42.6C188.3 42.5 188.4 42.4 188.5 42.4C188.5 42.4 188.6 42.4 188.8 42.4C188.8 39.7 188.8 38.2 188.8 37.9C188.6 37.9 188.5 37.9 188.4 37.9Z" fill="#E05014" stroke="#E05014" stroke-width="0.5" stroke-miterlimit="10"/>
<path d="M200.8 32.4C201.5 32.4 202.2 32.3 202.8 32.4C203.7 31.9 204.4 31.2 204.7 30.3C205.1 29.4 205.2 28.4 205 27.4C204.8 26.4 204.5 25.6 203.8 25C203.4 24.6 202.8 24.5 202 24.5C201.2 24.5 200.3 24.8 199.5 25.2C198.7 25.6 198.2 26.1 197.9 26.7C197.6 27.3 197.5 27.8 197.8 28.4C198 28.8 198 29.1 198 29.3C198 29.5 197.8 29.7 197.4 29.8C197.2 29.9 197.1 29.9 196.9 30C196.7 30.1 196.5 30.1 196.2 30C196 30 195.8 29.8 195.7 29.6C195.5 28.8 195.5 27.9 195.8 27C196 26.1 196.4 25.3 197 24.8C197.5 24.4 198 24 198.7 23.6C199.4 23.3 200 23.1 200.7 23.1C202.2 23 203.4 23.4 204.5 24.1C205.6 24.9 206.3 25.9 206.6 27.1C207 28.5 206.7 30.1 205.9 31.8C205.7 32.1 205.6 32.4 205.4 32.6C207.7 33.2 209.1 34.7 209.7 37C210.1 38.7 209.8 40.4 208.9 42.2C207.9 44 206.7 45.3 205 46C204.3 46.3 203.5 46.5 202.7 46.4C201.9 46.3 201 46.1 200.2 45.7C199.4 45.3 198.7 44.9 198 44.3C196.4 42.9 195.3 40.8 194.7 38C194.6 37.5 194.6 37.2 194.6 36.9C194.7 36.7 194.9 36.5 195.4 36.5C196.4 36.3 197 36.5 197 37C197 38.3 197.4 39.7 198 41C198.6 42.3 199.6 43.4 200.7 44.2C201.3 44.6 202 44.8 202.7 44.9C203.5 44.9 204.2 44.8 204.8 44.5C206.1 43.9 207 42.8 207.5 41.2C207.9 40.2 208.1 39.1 208 38C207.9 36.9 207.6 36 207.1 35.3C206.6 34.7 206.1 34.4 205.7 34.2C205.3 34.1 204.6 34.1 203.6 34.2C203.1 34.6 202.5 34.8 201.9 35.1C201.5 35.3 201.1 35.4 200.9 35.3C200.7 35.2 200.5 35 200.4 34.5C200.3 34.3 200.3 34 200.3 33.8C200.2 33.6 200.2 33.3 200.3 32.9C200.4 32.6 200.6 32.4 200.8 32.4Z" fill="#3D946A" stroke="#3D946A" stroke-width="0.5" stroke-miterlimit="10"/>
<path d="M226 27.9C225.6 26.3 224.8 25.4 223.6 25.1C223 24.9 222.3 24.9 221.7 25.1C221.1 25.2 220.5 25.5 220.1 25.9C219.3 26.6 218.6 27.6 218 28.7C217.4 29.8 217 31.1 216.8 32.5C216.6 33.7 216.5 34.9 216.6 36C217.7 34.4 218.9 33.2 220.2 32.4C221.4 31.6 222.9 31.4 224.5 31.8C225.3 32 226.1 32.3 226.7 32.8C227.4 33.3 227.9 33.9 228.2 34.5C228.5 35.2 228.7 36 228.7 36.9C228.7 37.8 228.4 38.7 228 39.6C227.3 41.2 226.2 42.4 224.8 43.2C223.2 44 221.6 44.2 220 43.7C219 43.4 218.2 43 217.4 42.4C216.7 41.8 216.2 41.1 215.9 40.4C215.9 40.3 215.8 40.1 215.8 40C215.5 39.9 215.2 39.8 215 39.6C214.8 39.4 214.7 39.3 214.8 39.1C215 38.8 215.1 38.4 215.4 38C214.9 34.6 215.3 31.3 216.6 27.9C217 26.8 217.7 25.9 218.6 25.1C219.5 24.3 220.5 23.7 221.6 23.3C222.9 22.9 224.2 23 225.7 23.6C226.7 24 227.5 25.1 228.3 26.8C228.5 27.2 228.5 27.5 228.5 27.7C228.4 27.9 228.2 28.1 227.9 28.2C227.7 28.3 227.5 28.3 227.3 28.4C227.1 28.4 226.9 28.4 226.6 28.4C226.2 28.3 226.1 28.1 226 27.9ZM217.1 39.3C217.2 39.6 217.3 39.9 217.4 40.1C217.6 40.5 218 41 218.5 41.3C219 41.7 219.7 42 220.4 42.1C221.7 42.4 222.8 42.3 223.9 41.7C224.6 41.3 225.2 40.8 225.8 40.1C226.3 39.4 226.7 38.6 226.9 37.8C227.1 36.9 227 36.1 226.7 35.3C226.4 34.5 225.8 34 225.2 33.7C224.5 33.4 223.7 33.3 222.8 33.4C221.9 33.5 221.1 33.9 220.3 34.5C219.2 35.3 218.2 36.6 217.4 38.6C217.2 38.9 217.2 39.1 217.1 39.3Z" fill="#3D946A" stroke="#3D946A" stroke-width="0.5" stroke-miterlimit="10"/>
<path d="M246.8 24.9C245.1 24.8 242.7 24.8 239.7 24.8C239.3 24.8 238.4 24.8 236.9 24.8C236.7 26.1 236.6 27 236.5 27.6C236.4 28.2 236.3 29 236.1 29.9C235.9 30.8 235.8 31.5 235.6 32C235.4 32.4 235.3 32.6 235.1 32.7C235.6 32.6 236.3 32.4 237.3 32.2C238.2 31.9 239 31.7 239.6 31.6C240.2 31.4 240.9 31.4 241.6 31.4C242.3 31.4 243 31.5 243.6 31.8C244.7 32.3 245.5 33.3 246.1 34.7C246.7 36.1 246.9 37.7 246.8 39.4C246.7 41.2 246.1 42.8 244.8 44.1C243.5 45.5 241.8 46.3 239.9 46.4C237.9 46.6 236.1 46.1 234.6 45C233.2 44 232.4 42.3 232 40C231.9 39.5 231.8 39.1 231.9 38.9C232 38.7 232.2 38.5 232.7 38.5C232.8 38.4 233.1 38.4 233.6 38.5C234.1 38.6 234.3 38.7 234.3 39C234.3 40 234.5 41 235 42C235.5 43.1 236.2 43.8 237.1 44.3C238 44.7 239 44.9 240.1 44.8C241.2 44.7 242.2 44.3 243 43.7C243.7 43.2 244.3 42.4 244.8 41.5C245.2 40.5 245.5 39.5 245.5 38.3C245.5 37 245.2 35.8 244.7 34.8C244.1 33.8 243.4 33.2 242.6 33C242 32.8 241.4 32.8 240.7 32.9C240 33 239.3 33.1 238.6 33.3C237.9 33.5 237.2 33.6 236.6 33.8C236 33.9 235.4 34 235 34C234.5 34 234.2 33.9 234.1 33.6C233.8 33.1 233.7 32.4 233.7 31.7C233.7 30.9 233.8 30.2 233.9 29.6C234 29 234.2 28.2 234.5 27.2C234.7 26.2 234.9 25.5 235 25C234.8 25 234.6 24.9 234.5 24.8C234.4 24.7 234.4 24.4 234.4 24.1C234.4 24 234.4 23.9 234.5 23.7C234.5 23.6 234.5 23.4 234.6 23.2C234.7 23 234.7 22.8 234.8 22.7C234.9 22.6 235 22.6 235.2 22.6C235.3 22.6 235.4 22.6 235.5 22.7C235.6 22.6 235.9 22.6 236.2 22.6C237 22.6 237.5 22.8 237.6 23.2C239.2 23.5 240.6 23.6 241.9 23.6C243.8 23.5 245.3 23.3 246.5 22.9C246.9 22.8 247.2 22.8 247.4 22.9C247.6 23 247.7 23.3 247.8 23.7C247.9 23.9 247.9 24.2 247.8 24.6C247.3 24.7 247.1 24.9 246.8 24.9Z" fill="#3D946A" stroke="#3D946A" stroke-width="0.5" stroke-miterlimit="10"/>
<path d="M255.1 42C255.4 42.9 255.4 43.8 255.1 44.5C254.8 45.2 254.3 45.6 253.6 45.4C253.3 45.3 253 45 252.9 44.5C252.7 44 252.7 43.5 252.9 42.9C253 42.6 253.1 42.3 253.3 42.2C253.5 42.1 253.6 42 253.8 42C254.4 41.5 254.9 41.5 255.1 42Z" fill="#E05014" stroke="#E05014" stroke-width="0.5" stroke-miterlimit="10"/>
<path d="M260.3 33.6C260.3 31.7 260.2 30.3 260 29.3C260 28.9 260 28.6 260.1 28.4C260.2 28.2 260.5 28.1 260.9 28.1C261.1 28.1 261.3 28.1 261.5 28.2C261.7 28.2 261.9 28.3 262.1 28.4C262.3 28.5 262.4 28.7 262.3 28.9C262.2 29.4 262.2 29.9 262.1 30.4C262.5 30 262.9 29.6 263.3 29.3C264.1 28.7 265.4 28.2 267.4 27.7C267.8 27.6 268.2 27.5 268.4 27.6C268.6 27.7 268.7 27.9 268.8 28.4C268.9 28.5 268.9 28.8 268.8 29.3C268.7 29.8 268.6 30 268.3 30C265.9 29.9 264.1 30.3 263.1 31.4C262.3 32.3 261.9 33.5 262 34.9C262 35.3 262 35.6 261.8 35.7C261.8 36.8 261.9 37.9 262 39.1C262.2 41.6 262.5 43.8 263 45.7C263.2 46.1 263.3 46.5 263.2 46.7C263.1 46.9 262.9 47.1 262.5 47.2C262.4 47.2 262.3 47.2 262.1 47.3C262 47.3 261.8 47.4 261.6 47.4C261.4 47.4 261.2 47.4 261.1 47.3C261 47.2 260.9 47.1 260.9 47C260.8 45.9 260.7 44.3 260.6 41.9C260.5 39.6 260.4 37.7 260.3 36.5C260.3 36.3 260.3 36.1 260.3 35.9C259.7 35.7 259.5 35.5 259.6 35.1C259.8 34.6 260 34.1 260.3 33.6Z" fill="#E05014" stroke="#E05014" stroke-width="0.5" stroke-miterlimit="10"/>
<path d="M276.6 29.9C275.5 33.8 275.3 37 275.9 39.4C276.1 40.3 276.5 41 277.1 41.7C277.6 42.4 278.3 42.8 278.9 43.1C279.6 43.4 280.4 43.5 281.2 43.3C282 43.1 282.7 42.8 283.3 42.2C284 41.6 284.5 40.7 284.8 39.5C285.1 38.3 285.3 37.2 285.3 36.1C285.3 35.2 285.1 33.9 284.8 32.2C284.5 30.5 284.3 29.4 284.2 28.9C284.1 28.4 284.1 28 284.1 27.8C284.2 27.6 284.4 27.4 284.9 27.4C285.1 27.4 285.4 27.4 285.8 27.4C286.3 27.4 286.5 27.6 286.5 27.9C286.5 28.6 286.6 30.1 286.8 32.2C287 34.4 287.1 36.1 287 37.4C287 38.3 286.8 39.3 286.4 40.2C286.1 41.1 285.6 41.9 285.1 42.5C284.4 43.4 283.5 44 282.6 44.5C281.7 45 280.7 45.1 279.8 44.9C278.5 44.7 277.3 43.9 276.2 42.6C275.1 41.3 274.3 39.8 273.9 37.9C273.8 37.5 273.7 37.1 273.7 36.6C273.7 36.1 273.6 35.7 273.6 35.4C273.6 35 273.6 34.6 273.7 34C273.8 33.4 273.8 33 273.9 32.7C273.9 32.4 274 31.9 274.1 31.3C274.2 30.7 274.3 30.2 274.3 30C274.4 29.6 274.5 29.3 274.6 29.2C274.7 29.1 275 29 275.4 29.1C275.6 29.1 275.8 29.2 276 29.2C276.2 29.3 276.4 29.4 276.6 29.6C276.8 29.8 276.7 29.7 276.6 29.9Z" fill="#E05014" stroke="#E05014" stroke-width="0.5" stroke-miterlimit="10"/>
</g>
<defs>
<clipPath id="clip0">
<rect width="290" height="65" fill="white"/>
</clipPath>
</defs>
</svg>
