<svg width="24" height="22" fill="none" xmlns="http://www.w3.org/2000/svg"><path d="M11.654 8.166v2.64-2.64zm0 2.64v2.641-2.64zm0 0h2.86-2.86zm0 0H8.793h2.86zm8.582 0a7.385 7.385 0 01-.654 3.032 7.913 7.913 0 01-1.86 2.57 8.663 8.663 0 01-2.784 1.717 9.208 9.208 0 01-3.284.603 9.207 9.207 0 01-3.285-.603 8.663 8.663 0 01-2.784-1.717 7.912 7.912 0 01-1.86-2.57 7.394 7.394 0 01-.654-3.031c0-2.101.905-4.116 2.514-5.601 1.61-1.486 3.792-2.32 6.069-2.32 2.276 0 4.459.834 6.068 2.32 1.61 1.485 2.514 3.5 2.514 5.6z" stroke="#6B7786" stroke-width="2" stroke-linecap="round" stroke-linejoin="round"/></svg>