<svg width="20" height="20" fill="none" xmlns="http://www.w3.org/2000/svg"><path d="M2.78 2.446h1.59l.317 1.62-1.907-1.62zm3.179 8.102h7.946l3.179-6.481H4.687l1.272 6.481zm0 0L4.687 4.067l1.272 6.481zm0 0l-1.822 1.858c-.5.51-.146 1.383.562 1.383h9.206L5.96 10.548zm7.946 3.24c-.421 0-.825.171-1.123.475a1.637 1.637 0 00-.466 1.146c0 .43.167.842.465 1.146a1.572 1.572 0 002.248 0c.298-.304.466-.716.466-1.146 0-.43-.168-.842-.466-1.146a1.574 1.574 0 00-1.124-.474zM7.548 15.41c0 .43-.167.842-.465 1.146a1.574 1.574 0 01-1.124.474c-.422 0-.826-.17-1.124-.474a1.637 1.637 0 01-.465-1.146c0-.43.167-.842.465-1.146a1.574 1.574 0 011.124-.474c.421 0 .826.17 1.124.474.298.304.465.716.465 1.146v0z" stroke="#fff" stroke-width="2" stroke-linecap="round" stroke-linejoin="round"/></svg>