<svg width="290" height="65" fill="none" xmlns="http://www.w3.org/2000/svg"><g clip-path="url(#clip0)"><path d="M70.6 56.8c-.1.1-.1.1 0 0 0 .1.1.1 0 0 0 .1 0 0 0 0zM20 57c-.1 0-.1.1-.1.2.1.1.2.1.2-.1 0-.1-.1-.1-.1-.1zM31 .1c-.1 0-1 .7-1.5 1.3-.7.6-1.4 1.5-1.5 1.6-.1 0-.7.8-.8 1 0 .1-.2.3-.4.5-.8 1-2 3.1-2.5 4.3-.3.7-1 2.6-1.2 3.3-.2.6-.4 2.2-.4 2.9 0 1.4.1 3.2.4 4 0 .1.1.2.1.2 0 .1.3 1 .5 1.4l.2.4c0 .1.5 1.3.6 1.6.4.8.7 1.5.8 1.6.8 1.3 2.1 3 3 3.9l.4.4c.2.2 1 .9 1 .9.1 0 .1 0 0-.1-.1-.4-1.1-2-1.3-2.2-.1-.1-.2-.2-.2-.4-.2-.5-.8-1.6-1.4-2.8-.3-.6-.7-1.2-.8-1.5-.4-.7-.8-2-1-3.4-.3-1.3-.3-2.9 0-4.1.5-2.1.9-3 1.8-4.5s1.4-2.2 1.8-2.7c.5-.5 1.6-1.7 2-2 .8-.7.9-.8 1-.8.1 0 .4.2.9.6 1.3 1 3 2.3 2.8 2-.1-.1-.1-.3-.2-.4-.3-.8-1-2.2-1.8-3.5C33 2.7 31.1.2 31 .1z" fill="#8DD4B4"/><path d="M47.7 0c-.2 0-.4.2-.4.3 0 .1-.1.1-.1.1l-.4.2c-.2.1-.3.2-.3.2s-.1 0-.1.1-.5.5-1.1.9c-1 .8-1.7 1.3-2.2 1.8-.1.1-.3.2-.3.2l-.4.4c-.2.2-.7.6-1 .9-.4.3-.7.6-.8.7-.1.1-.2.2-.3.2-.1 0-.9.8-2.5 2.3-1.2 1.2-2 2.1-2.9 3.5-.9 1.3-1.4 2.1-1.8 2.6-.2.3-.4.6-.5.7-.6.8-1.7 3.3-2.1 4.7-.4 1.2-.4 1.9-.4 3.8 0 2 .1 2.8.3 4.6.3 2.3.5 2.9 2 5.8 1 2.1 1.5 2.9 2 3.6.2.2.5.7.7 1.1.7 1.1 2.3 3.4 3.2 4.6.9 1.2 4.1 4.3 4.6 4.5.1 0 .2.1.3.3.2.2.2.2.2.1s-.2-.3-.4-.5c-1.1-1.2-1.6-1.7-1.9-2.1l-.4-.4-1-1.4c-.7-1.1-1.2-1.9-2.1-3.7-1.4-2.8-1.6-3.1-1.9-4.4-.5-1.8-.7-3.4-.9-5.5-.1-1.2 0-2.9.2-4.1.1-.4.2-.9.2-1.2.4-1.9 1.7-5 2.7-6.6 1.6-2.3 3-4.1 4.4-5.3.3-.3 1.4-1.3 2.3-2.2 2-1.9 2.9-2.7 3.1-2.7.3 0 4.9 4.9 6.6 7 .9 1.2 2.6 3.7 3.2 4.7.9 1.7 1.9 4.2 2 5.3 0 .2.1.7.2 1.1.3 1.5-.1 7-.5 8.6-.1.4-.3 1-.4 1.2-.2.6-.7 2-.9 2.5-.1.3-.2.5-.2.5 0 .1-.6 1.4-.8 1.8-.4.8-1 1.9-1.2 2.3-.3.6-.6 1.2-.8 1.4-.1.1-.3.4-.4.6-.1.2-.3.4-.3.5-.1.1-.2.2-.3.4-.1.2-.5.6-.8.9-.7.7-1 1.1-.6.8.5-.4 2.7-2.6 3.4-3.3 1-1.1 2.5-3.1 3.1-4.1.1-.2.5-.7.8-1.2.7-1 .9-1.4 1.3-2.1.2-.3.5-.9.7-1.3 1-1.7 2-3.8 2.2-4.7.2-.5.3-1 .4-1.1.3-.9.8-4.3.8-5.9 0-1.9-.4-4.2-1.1-5.6-.1-.3-.3-.6-.4-.8-.3-.7-1.6-3.4-2.1-4.2-1.1-2-2.8-4.1-4.7-6-1.3-1.3-4.1-3.7-5-4.4-.3-.2-.5-.4-.6-.5C50.7 2 48.2.3 48.1.3c0 0-.2-.1-.3-.2.1-.1-.1-.1-.1-.1z" fill="#E05014"/><path d="M80.7 18.9h-.2c-.1 0-.4.2-.7.3-.3.1-.7.3-1 .4-.3.1-.7.3-.9.4-.5.2-2.1 1-2.7 1.3-.2.1-.7.3-1 .5-.3.2-.8.4-1.1.6-.3.2-.6.3-.6.3s-.2.2-.5.4c-.5.4-1.1.9-1 1 0 0 .4-.1.8-.3 1.1-.5 1.9-.7 2.7-.9.9-.2 1.2-.3 2.4-.3h.9v1c0 .8-.1 1.2-.2 2-.1.5-.2 1-.2 1.1 0 .2-.5 1.6-.7 2.1-1 2.4-2.2 4.2-4.1 5.8-.5.4-1.3 1.1-1.9 1.4-.2.1-.5.3-.6.4-.3.3-1.4 1.1-2.4 1.7-.7.5-1.1.7-3 1.6-.5.3-.7.4-.6.4 0 0 .4-.1.8-.3 1.6-.5 2.9-1.1 3.8-1.5.1 0 .3-.1.5-.3.2-.1.5-.2.5-.3.1 0 .3-.1.4-.2.1-.1.4-.2.5-.3 2.6-1.4 4.9-3.2 6.5-5.1.7-.9 1.6-2.1 1.9-2.7.8-1.5.8-1.6 1.1-2.7.6-2.2.8-4.6.5-6.7.4-.4.2-1 .1-1.1zm-65.6.3c-.1 0-.2 0-.2.1s-.1.1-.1.1c-.1-.1-.1.1-.2 1 0 .5-.1 1-.1 1.2 0 .3.1 2.4.1 2.8.1.6.7 2.7 1 3.6.3.7.6 1.6.9 2.1.1.2.3.5.3.6 0 .1.4.6.7 1.1.5.8.7 1.1 1.4 1.8.3.4 1.6 1.6 2.1 2 .8.7 2.9 2 4 2.5.5.2 1.8.8 2 .8.1 0 .6.2 1.2.4.8.3 1.8.6 2.3.7 0 0 0-.1-.1-.1-.1-.1-.9-.6-1.8-1.2-.7-.4-2.7-1.8-3.2-2.1-.1-.1-.3-.2-.4-.3-.2-.1-.8-.6-1-.8-.4-.3-.9-.8-1.1-.9-.6-.5-1.4-1.3-2-2.1-.9-1.2-2.1-3.3-2.5-4.5-.6-1.6-1-3.5-1-4.2 0-.3-.1-1.4-.2-1.5 0-.1.1-.1.5 0 .3 0 .6.1.7.1.1 0 .2.1.3.1.3 0 2.2.5 3.1.8.8.3 1.8.7 2.9 1.2.6.3.6.3-.6-.9-1.3-1.3-3-2.4-5.3-3.4-1.2-.5-2.6-.9-3.5-1h-.2zm69.7 7.4c-.1 0-.1.1-.2.3-.2.5-.6 1-1 1.5-.2.3-.6.8-.8 1.2-.4.7-1.1 1.5-1.3 1.8-.1.1-.4.5-.7.8-.8 1-2.1 2.3-2.9 2.9-.3.3-1.6 1.1-1.7 1.1 0 0-.1.1-.2.1-.1.1-.1.1-.2.1s-.4.2-.8.5-.8.5-.8.5l-.1.1c-.1.1-.2.1-.3.2-.2.1-.9.5-.9.6 0 .1 4.5.1 5.9-.1.9-.1 1.7-.3 2.6-.7.3-.2.6-.3.6-.3s.1 0 .1-.1c0 0 .1-.1.3-.2.3-.1 1.4-1.2 1.7-1.7.1-.2.3-.5.4-.7.2-.4.4-1.3.4-1.4v-.3c0-.1.1-.8.1-1.6 0-.7.1-1.6.1-1.8v-1.6c-.1-.8-.2-1.2-.3-1.2zm-73.6.6c-.2 0-.2 0-.3.8-.3 2-.3 4.5 0 5.4.1.4.5 1.3.8 1.7.3.5 1.5 1.6 2 1.9.6.3 1.5.7 1.9.8.2 0 .5.1.7.2.6.2 4.1.5 5.1.4h.6c.3 0 .3-.2 0-.3-.4-.1-2.2-1.2-2.8-1.7-.6-.4-1.4-1.3-2.2-2.2-1-1.1-2.5-2.9-3.1-3.7-.3-.4-.3-.4-.5-.6-.2-.3-1.8-2.4-1.9-2.6-.1-.1-.2-.1-.3-.1zm76.9 7a.1.1 0 100-.2.1.1 0 000 .2z" fill="#8DD4B4"/><path d="M88 34.3c-.1 0-.1 0-.1.1-.3.4-.9 1.2-1.7 1.8-.8.7-1 .9-1.9 1.4-1.1.8-1.3.9-1.6 1-.2.1-.4.2-.5.2-.1.1-.3.1-.3.1s-.4.1-.7.2c-1.5.6-4.4 1-7.9 1.2-.4 0-.7.1-.7.1s-.5.1-1 .1-1.3.1-1.8.2-1.3.2-1.7.2c-1.4.2-1.6.2-2.6.5-1.1.3-1.7.5-2.3.7-1.1.4-3 1.5-4 2.1-.1.1-.4.2-.5.3-.3.2-1 .6-1.8 1.2-.6.4-2.5 2.3-3 2.8-.1.2-.3.3-.3.4-.1 0-.3.3-.5.6s-.5.6-.6.7c-.2.2-.2.4-.1.4l.4-.2c.7-.5 2.3-1.4 3.1-1.8.5-.3 1.7-.8 1.8-.8 0 0 .1 0 .2-.1.2-.1 1.3-.5 1.9-.6 1.7-.5 2.3-.6 3.2-.7.4 0 .8-.1.8-.1.1 0 .8-.1 1.7-.1 1.8-.1 4.8-.3 5.6-.5.3-.1.7-.1.9-.2.8-.1 1.1-.2 1.4-.3.2-.1.8-.2 1.4-.3 1.4-.3 2-.5 2.2-.6.1-.1.2-.1.3-.1.1 0 .3-.1.5-.2 2-.7 4.5-2 4.8-2.5.1-.1.1-.1.1 0 0 .4-.1.6-.7 1.7-.2.3-.5.9-.7 1.3-.2.4-.5.9-.5 1-.1.1-.3.5-.5.9s-.5.8-.7 1c-.2.2-.3.4-.4.5-.1.3-1.2 1.6-1.9 2.2-.7.7-.8.8-2.5 1.8-1.9 1.2-3.2 1.8-4.8 2.1-.3.1-1 .2-1.4.3-.7.1-1.5.2-4 .5-.2 0-.3.1-.3.1.1.1 2.1.5 2.9.5.7.1 2.2.1 3.2 0 1.8-.1 2.1-.2 3-.4.3-.1.6-.1.7-.2.1 0 .2-.1.2-.1s.4-.2.7-.3c1.8-.6 3.6-1.6 5-2.8.6-.5 2.6-2.5 2.9-2.9.1-.1.3-.4.5-.6.2-.2.5-.7.8-1.2.3-.5.7-1 .8-1.2.2-.4.9-1.7 1.4-2.7.5-1.1 1.2-3.5 1.4-4.9.1-.5.2-1.2.2-1.5 0-.3.1-1.1.1-1.6 0-.6 0-.7-.1-.7zM8.1 35.5c-.1.1-.1 2.3 0 3.1.1 1.2.6 3.7.9 4.2 0 .1.1.3.2.5.2.5.4 1 .6 1.4.1.1.1.3.2.4.1.4.9 1.8 1.6 2.6 1.4 1.9 2.5 3.1 4.1 4.2.2.1.4.3.5.4.1.1.3.2.3.2s.2.1.3.2c.2.1.3.2.3.2s.2.1.5.3c.5.3 1.7.9 2.2 1.1.7.3 1.6.5 2 .6.3.1.6.1.8.2 1.6.4 4.1.6 5.4.5.3 0 .9-.1 1.4-.2.5-.1 1.1-.1 1.4-.2.7-.1 2.2-.5 2.5-.6l.2-.1h-.2c-.7.1-2.1.2-2.6.1-2.5-.2-2.8-.2-4-.4-1.5-.2-2.7-.6-3.8-1.1-.1-.1-.4-.2-.7-.3-.5-.2-1.5-.8-2.1-1.2-.9-.5-1.5-1-2.6-2.1-1.2-1.2-1.5-1.5-2.7-3.2-.4-.6-.8-1.1-.9-1.2-1.3-1.8-2.1-3.5-1.9-3.7 0 0 .2.1.3.2.2.1.3.2.4.3.8.5 1.2.8 1.5 1 .2.1.4.2.5.3.1.1.1.1.2.1s.2.1.3.1c.1.1.6.3 1 .4.4.2.8.4.9.4.6.3 2.1.8 2.8.9 1.5.3 2.4.4 4.8.5.7 0 1.6.1 1.9.1.3 0 1.2.1 1.9.2 3 .3 4.5.5 5.2.7.1 0 .4.1.6.1 1.6.3 3.8 1.2 6.1 2.5.7.4 1.8 1.1 2 1.3.2.2.8.5.9.5.1-.1-1.2-1.6-2.1-2.5-1.3-1.3-3.5-3.6-3.9-3.8-2.9-2-3.3-2.2-5.6-2.8-1.3-.3-1.2-.3-1.7-.4-.3-.1-.7-.1-.9-.2-.4-.1-1.6-.3-2.3-.4-.1 0-.4-.1-.7-.1-.3-.1-1-.2-1.5-.2-.6-.1-1.2-.2-1.4-.2-.2 0-.7-.1-1.1-.1-.4 0-1-.1-1.4-.1-.4 0-1.2-.1-1.7-.1-4.2-.3-5.6-.6-7.6-2-.6-.4-2.1-1.8-2.7-2.4-.4-.1-.5-.2-.6-.2zm22.7 4.6c-.1 0-.1 0 0 0 .1.2.1.2.1.1s-.1-.1-.1-.1zm5.6 2.4s.1 0 0 0c.1.2.2.2.2.2 0-.1 0-.1-.2-.2.1 0 0 0 0 0zM86.8 48c-.1 0-.1 0 0 0 0 .2.5.6 1.5 1.4.7.5 1.4 1.2 1.4 1.3 0 .1 0 .2-.1.2-.2.4-1.4 1.4-2.1 1.9-.1.1-.4.3-.5.4-1.2.9-1.5 1.1-2.5 1.5-.9.4-2.5 1-4 1.3-.3.1-.7.2-1 .2-.5.1-1.3.3-2.3.4-.5.1-.6.1-2.5.2-1.2.1-1.4.1-1.3.2.1.1 1.4.4 2.1.5.9.2 1.6.2 3 .3.6 0 1.3.1 1.6.1h.7c.1 0 .4 0 .8-.1 1.1-.1 2.1-.2 3.5-.6.3-.1.6-.2.8-.2.2 0 .7-.3 1.2-.5.1 0 .3-.2.6-.3.3-.2.6-.3.6-.4.1-.1.3-.2.5-.4.2-.1.8-.6 1.3-1.1.9-.9 1.4-1.4 2.3-2.6.2-.3.5-.7.6-.8.3-.3.2-.4-.1-.6-.2-.1-.7-.3-1.1-.5-.5-.2-1-.5-1.1-.5-.6-.3-1.7-.8-2.3-1-.4-.1-.7-.3-.8-.3-.1 0-.2-.1-.4-.1l-.4.1zm-78.6.8c-.1 0-.3 0-.6.1-1 .2-1.5.4-2 .6-.3.1-.7.3-.9.3-.2.1-.5.2-.5.2-.1 0-.4.2-.7.3-.3.1-.7.3-.8.4-.1.2-.3.3-.3.3-.1 0-.1.2 0 .3.1.1.1.1.1.2 0 0 .1.1.1.2.1.1.2.2.3.4.2.3 1.1 1.3 1.3 1.5.1.1.3.2.4.4.2.2.4.3.5.4.1.1.4.3.7.5 1.7 1.2 2.5 1.7 3.9 2.3.7.3 2.2.7 3 .8 1.2.2 3.9.2 5.7.1.5 0 .9-.1 1-.1 1.4-.2 2-.4 2.4-.5.2-.4.2-.5.1-.5s-.3-.1-.5-.1c-.9 0-3.2-.3-4.3-.5-.2-.1-.9-.2-1.5-.3-1.2-.2-1.4-.3-2.8-.7-1.1-.4-1.2-.4-2.8-1.2-1.4-.7-2.5-1.5-4.2-2.8l-.2-.1.6-.5c.3-.3.9-.7 1.2-1 .3-.3.7-.6.8-.7.2-.2.2-.2.1-.3.1.1 0 0-.1 0zm42.8.4s-.1.1 0 0c-.1.1-.1.1 0 .1s0 0 0-.1c.1.1 0 0 0 0zm-.4.5a.1.1 0 100-.2.1.1 0 000 .2zm.1 2.7l.1.1c.2.3 2.1 2 2.7 2.4.2.1.6.4.9.7.7.5.9.7 2.1 1.4 1.6.9 3.4 1.6 4.4 1.9.4.1.7.2.8.2.1 0 .4.1.6.1.5.1.8.2.8.3 0 .1-1.2.7-1.7.9-1.1.4-2 .5-3.7.5-1.5 0-1.6 0-2.6-.3-1.3-.4-1.9-.9-3.4-2.4-1.6-1.6-2.1-2.3-2.5-3.2-.1-.2-.2-.4-.3-.4-.1 0-.1-.1-.2-.2l-.1-.2-.1.7c-.2 1.1-.2 2 0 2.7.4 1.5 1.2 2.8 2.5 4.2.7.7.9.9 1.7 1.4 1 .7 1.6 1 1.8 1.1.1 0 .4.1.7.3.6.3 1.3.4 2.6.5.8.1 3.1 0 3.6-.1 1.3-.3 3-1 4-1.6.8-.5 2-1.8 2.7-2.7.2-.2.5-.7.7-.9.6-.8 1.3-1.9 1.3-2.2 0 0 0-.1.1-.1s.1 0 .1-.1-.7-.1-1.5 0c-1.5.2-3.9.1-4.9-.2-.2 0-.6-.2-1-.3-.8-.2-2.1-.6-2.7-.8-.6-.2-1.9-.7-2.2-.9l-.6-.3c-.2-.1-.5-.2-.6-.3-.1-.1-.9-.4-1.7-.7-1.5-.6-2.1-.9-2.6-1.1-.2-.1-.3-.1-.3-.1l-.6-.2c-.3-.1-.6-.2-.7-.3-.1.2-.2.2-.2.2zm-5.9.1c-.1 0-.3.1-.8.3-.4.2-1.1.5-1.4.7-.4.2-.9.4-1.1.5-.2.1-.7.3-1 .4-.3.1-.9.4-1.2.5-1.3.5-4.2 1.5-5 1.7-.1 0-.4.1-.6.2-.9.3-2.9.6-3.8.7-.8.1-2.6.2-4.2.2-.3 0-.5 0-.5.1s.3.7.7 1.5c.6 1.2.9 1.6 1.2 2.1 0 .1.3.3.5.5.5.5 1 .9 1.7 1.3.3.2.5.3.6.4.1.1.1.1.2.1s.4.1.6.3c.5.3 1.4.5 2 .7.2.1.5.1.7.2.2.1.6.1 1.6.3.2 0 1.3 0 1.8-.1.2 0 .5-.1.6-.1.1 0 .4-.1.6-.1.2-.1.5-.2.8-.2 1.1-.3 2.1-.7 2.6-1.1.1-.1.4-.3.6-.4 1.1-.7 2.7-2.5 3.6-4 .6-1 .9-1.7 1-2.7.1-.6 0-1.8-.1-1.9l-.3.3c-.5.8-.7 1.1-1.1 1.6-.2.3-.5.6-.6.8-.6.7-1.9 2-2.6 2.6-.9.7-2.3 1.4-3.3 1.6-1.2.3-2.7.2-4.4-.4-.4-.2-1.3-.6-1.6-.8-.2-.1-.6-.4-.8-.6-.2-.2-.5-.4-.5-.4.1-.1.2-.1 1.4-.2.7-.1 1.3-.2 2-.4.6-.2 2.1-.9 3-1.4.2-.2.8-.4 1.2-.7.4-.2.9-.5 1.2-.7.3-.2.7-.4.8-.5.2-.1.5-.3.7-.4.2-.1.6-.4 1-.6.5-.3 1.3-.9 2-1.5.2-.3.3-.4.2-.4zM66.6.6c.1 0 .9.8 1.3 1.3.5.7 1.1 1.6 1.1 1.7 0 0 0 .1.1.1s.5.8.6 1c0 .1.2.3.3.5.6 1.1 1.5 3.2 1.9 4.4.2.7.7 2.6.8 3.3.1.6.2 2.2.1 2.8-.1 1.3-.4 3.1-.6 3.8 0 .1-.1.2-.1.2 0 .1-.4 1-.5 1.3-.1.2-.2.3-.2.4-.1.1-.6 1.3-.7 1.4-.4.7-.7 1.3-.8 1.4-.8 1.2-2.1 2.7-3 3.5-.2.2-.4.3-.4.4-.2.2-.9.8-1 .8-.1 0-.1 0 0-.1.2-.3 1.1-1.8 1.3-2 .1-.1.2-.2.2-.4.2-.4.8-1.5 1.5-2.5.3-.5.7-1.1.8-1.4.4-.7.8-1.9 1.2-3.2.3-1.3.5-2.8.3-4-.3-2-.5-3-1.2-4.5s-1.1-2.3-1.4-2.7c-.4-.5-1.3-1.8-1.6-2.1-.7-.9-.8-1-.9-1-.1 0-.4.2-.9.5-1.2.9-2.9 1.9-2.7 1.7.1-.1.1-.2.2-.4.3-.7 1.1-2 1.9-3.3.5-.5 2.3-2.9 2.4-2.9z" fill="#8DD4B4"/><path d="M52.3 30.3c-.1 0-.1 0 0 0-.1.1.4.6 1.2 1.5.6.6 1.2 1.3 1.2 1.4 0 .1 0 .1-.1.2-.3.3-1.6.9-2.4 1.1-.2.1-.4.1-.6.2-1.4.5-1.7.6-2.7.8-.9.2-2.7.3-4.2.3h-1.1c-.5 0-1.3-.1-2.3-.2-.5-.1-.6-.1-2.5-.3-1.2-.2-1.4-.2-1.4-.1.1.1 1.3.6 2 .9.8.3 1.5.5 2.9.9.6.2 1.3.3 1.5.4.2.1.6.2.6.2s.4.1.8.1c1.1.2 2.1.2 3.5.2h.8c.2 0 .8-.1 1.3-.2.1 0 .4-.1.6-.2.3-.1.6-.2.7-.2.1 0 .3-.1.6-.2.2-.1.9-.4 1.5-.7 1.1-.5 1.6-.9 2.7-1.7.3-.2.6-.5.7-.5.3-.2.3-.3 0-.5-.2-.1-.6-.4-1-.7-.4-.3-.9-.6-1-.7-.6-.4-1.5-1-2.1-1.3-.3-.2-.6-.4-.7-.4-.1 0-.2-.1-.3-.2-.1-.1-.2-.1-.2-.1z" fill="#E05014"/><path d="M69.9 27.1c0 .2.1.7.2 1.5s.2 1.4.2 1.6c0 .3.1.7.2 1.4s.2 1.2.3 1.5c.1.3.2.8.3 1.3.1.5.2 1 .4 1.4.1.4.3.8.4 1.2.6 1.6 1.7 3 3.2 4.2.3-.8.7-1.7 1-2.6 1.5-4.4 2.8-8.4 3.7-12 .1-.2.1-.4.1-.4s0-.1.1-.3c.1-.1.1-.2.1-.2s.1 0 .2-.1c.1 0 .2-.1.3-.1.1 0 .2 0 .4.1s.4.1.5.2c.2.1.4.2.6.4.2.2.3.3.2.5-.5 1.1-1.5 3.5-2.8 7.2-1.4 3.7-2.4 6.4-3.1 8.2.3.2.5.4.5.5 0 .1 0 .3-.2.7-.1.1-.2.3-.3.4l-.5.5c-.2.2-.4.2-.5.2-.2.4-.3.8-.5 1.1-.9 2.1-1.8 3.7-2.8 4.6-.8.7-1.7 1-2.6.9-1-.1-1.9-.5-2.8-1.3-.3-.3-.4-.5-.4-.8 0-.2.2-.5.5-.7.2-.1.3-.2.5-.3.2-.1.4-.2.6-.2.2 0 .4 0 .5.2.4.7.8 1.2 1.1 1.5.3.2.6.3.9.1.8-.5 1.7-1.7 2.7-3.7.4-.8.8-1.7 1.3-2.6-2.2-2.5-3.7-5.2-4.6-8.2-.1-.4-.4-1.5-.7-3.2-.4-1.7-.7-3-1.1-3.9-.2-.4-.2-.7-.2-.9.1-.2.3-.4.7-.5.2-.1.5-.1.9-.1.2.3.5.4.5.7zm20 2.8c-1.1 3.9-1.3 7.1-.7 9.5.2.9.6 1.6 1.2 2.3.5.7 1.2 1.1 1.8 1.4.7.3 1.5.4 2.3.2.8-.2 1.5-.5 2.1-1.1.7-.6 1.2-1.5 1.5-2.7.4-1.1.5-2.3.5-3.4 0-.9-.2-2.2-.5-3.9-.3-1.7-.5-2.8-.6-3.3-.1-.5-.1-.9-.1-1.1.1-.2.3-.4.8-.4h.9c.4 0 .7.2.7.5 0 .7.1 2.2.3 4.3.2 2.2.3 3.9.2 5.2 0 .9-.2 1.9-.6 2.8-.3.9-.8 1.7-1.3 2.3-.7.9-1.6 1.5-2.5 2-1 .5-1.9.6-2.8.4-1.3-.2-2.5-1-3.6-2.3-1.1-1.3-1.9-2.8-2.3-4.7-.1-.4-.2-.8-.2-1.3s-.1-.9-.1-1.2c0-.4 0-.8.1-1.4.1-.6.1-1 .2-1.3 0-.3.1-.8.2-1.4.1-.6.2-1.1.2-1.3.1-.4.2-.7.3-.8.1-.1.4-.2.8-.1.2 0 .4.1.6.1.2 0 .4.2.6.4 0-.1.1.1 0 .3zm15.5 3.7c0-1.9-.1-3.3-.3-4.3 0-.4 0-.7.1-.9.1-.2.4-.3.8-.3.2 0 .4 0 .6.1.2 0 .4.1.6.2.2.1.3.3.2.5-.1.5-.1 1-.2 1.5.4-.4.8-.8 1.2-1.1.8-.6 2.1-1.1 4.1-1.6.4-.1.8-.2 1-.1.2.1.3.3.4.8.1.1.1.4 0 .9s-.2.7-.5.7c-2.4-.1-4.2.3-5.2 1.4-.8.9-1.2 2.1-1.1 3.5 0 .4 0 .7-.2.8 0 1.1.1 2.2.2 3.4.2 2.5.5 4.7 1 6.6.2.4.3.8.2 1-.1.2-.3.4-.7.5-.1 0-.2 0-.4.1-.1 0-.3.1-.5.1s-.4 0-.5-.1c-.1-.1-.2-.2-.2-.3-.1-1.1-.2-2.7-.3-5.1-.1-2.3-.2-4.2-.3-5.4v-.6c-.6-.2-.8-.4-.7-.8.2-.5.4-1 .7-1.5zm14.4-5.1c.8 1.7 1.6 3.6 2.3 5.6.5 1.3 1.1 3.1 1.9 5.4.1.3.3.8.7 1.4.3.6.5 1.1.7 1.4 0-.2.1-.5.1-.7 1-3.9 2.7-8.4 5.2-13.3 0-.1.1-.2.1-.3.1-.1.1-.2.1-.3 0 0 .1-.1.1-.2.1-.1.1-.1.1-.2 0 0 .1 0 .1-.1h.4c.1 0 .2.1.3.1.2.1.3.2.5.3.2.1.3.3.5.5s.2.4.1.5c-1.5 2.1-2.8 4.2-3.9 6.4-.6 1.1-1 2.3-1.4 3.5 0 .1-.3 1.2-.8 3.3 0 .1-.1.3-.1.6-.1.3-.1.5-.1.6 0 .1-.1.3-.2.5s-.1.4-.2.5c-.1.1-.1.3-.2.4-.3.4-.7.4-1.2.3-.5-.2-.9-.6-1.1-1.2-.2-.6-.7-1.8-1.3-3.4-.6-1.7-1.1-2.9-1.4-3.8-.3-.8-.8-1.9-1.4-3.1-.6-1.2-1.1-2.3-1.7-3.2-.2-.4-.3-.6-.3-.8 0-.2.2-.4.5-.6.1-.1.3-.2.5-.3.2-.1.4-.1.7-.1.2 0 .3.1.4.3zm33.1 12.3c-.5.7-1.1 1.4-1.9 2.1-.8.7-1.7 1.2-2.7 1.7-1 .5-2.1.7-3.1.5-1.3-.2-2.5-.8-3.6-1.9-1.1-1.1-2-2.3-2.7-3.8l-.6-1.5c-.3-.1-.4-.4-.4-.9 0-.2 0-.3.1-.5-.3-1.9-.1-3.6.6-5.2.6-1.4 1.6-2.5 3-3.3 1.4-.8 2.8-1.2 4.2-1.1.9.1 1.8.4 2.7.9.9.5 1.6 1.2 2.1 1.9.7.9 1 2 .9 3.3-.1 1.2-.5 2.2-1.3 2.9-1.9 1.7-5.3 2.5-10.1 2.1.6 1.5 1.4 2.8 2.6 3.9.6.6 1.3 1 2.2 1.2.9.2 1.6.2 2.4 0 .6-.2 1.2-.6 1.8-1.2.6-.6 1.1-1.3 1.5-2.1.2-.4.4-.6.5-.7.1-.1.4 0 .8.1.3.1.6.3.8.6.3.5.3.7.2 1zm-13.3-4.9c2.1.6 4 .7 5.6.5 1.3-.2 2.4-.6 3.4-1.3 1-.7 1.5-1.4 1.6-2.2.1-.5-.1-1-.4-1.6-.4-.6-.9-1.2-1.6-1.6-1.3-.9-2.5-1.3-3.7-1.1-1.1.2-2.1.7-3 1.6-1 .9-1.6 1.9-1.8 3-.2.8-.3 1.7-.1 2.7zm32.4-15c-.9 4-1.2 9.3-.6 15.9.3 4 .7 7.2 1.3 9.7.1.4.2.8.2 1 0 .2-.3.4-.7.5-.2.1-.5.1-.7.1-1 .1-1.5 0-1.5-.5-.2-2.6-.4-5-.7-7.1-.7 1.4-1.5 2.4-2.3 3.2-.5.5-1.1.9-1.9 1.1-.7.2-1.4.3-2.1.2-.7-.1-1.3-.3-2-.7-.6-.4-1.1-.9-1.5-1.5-.8-1.1-1.3-2.4-1.6-3.9-.3-1.5-.3-2.9 0-4.4.3-1.3.9-2.5 1.9-3.6 1-1.1 2.1-1.8 3.4-2.2.9-.3 1.9-.2 3 .3s1.9 1.3 2.5 2.2c.4.7.8 1.5 1.1 2.5 0-.6-.1-1.1-.1-1.7-.1-1.9-.1-3.2-.1-4 0-.8 0-2 .1-3.7 0-1.7.1-2.8.1-3.3 0-.4.1-.7.2-.9.2-.1.4-.2.8-.1.2 0 .4.1.6.1l.6.3c-.1.1 0 .3 0 .5zm-3.5 15.4c-.3-1.2-.6-2.4-.9-3.5-.4-1.3-1.1-2.2-2-2.7-.4-.2-.8-.3-1.4-.3-.5 0-1 .2-1.5.4-1 .6-1.8 1.4-2.4 2.3-.6.9-1 2-1.2 3.1-.2 1.5 0 3 .6 4.3.4.8.8 1.4 1.4 2 .5.5 1.1.9 1.7 1 .5.1 1.1 0 1.7-.3.6-.3 1.2-.8 1.8-1.5.7-.8 1.3-2.1 1.8-3.9 0-.1.1-.3.1-.4 0-.1.1-.3.1-.4.1.1.1 0 .2-.1zm9-3.1c0-.9.4-1.9 1.1-2.8.7-.9 1.5-1.5 2.5-1.8 1.9-.5 3.4-.6 4.5-.3 1.5.4 2.6 1.2 3.3 2.5.8 1.3 1.2 2.7 1.2 4.3v4.1c0 .6 0 1.1.1 1.4 0 .3.1.7.1 1.2s.1 1 .2 1.3c.1.3.1.8.2 1.2.1.5.2.9.3 1.3.2.4.2.8.2 1 0 .2-.3.4-.7.5-.2 0-.3.1-.5.1h-.7c-.3 0-.4-.2-.4-.3-.1-.7-.1-1.5-.1-2.3-1.9.6-4 .8-6.4.6 0 0-.2 0-.5-.1h-.6c-.1 0-.2 0-.5-.1-.3 0-.5-.1-.6-.1-.1 0-.3-.1-.5-.1-.2-.1-.4-.1-.5-.2-.1-.1-.3-.1-.5-.2s-.3-.2-.5-.3c-.6-.4-1-1.1-1.2-1.9-.2-.8 0-1.6.3-2.3.4-.9 1.1-1.8 2-2.6.9-.8 1.9-1.4 3-1.9 1.7-.7 3.7-.7 6.2-.2-.1-1.7-.4-3.1-.8-4.5-.1-.5-.7-.8-1.7-1-1-.2-1.9-.1-2.9 0-1 .2-1.9.5-2.5.9-.6.4-.9 1-.9 1.5 0 .4 0 .7-.1.9-.1.2-.3.3-.7.3-.2.1-.5.1-.9 0s-.5.2-.5-.1zm10.9 4.7c-2.1-1-4.1-1.2-6-.5-1.2.4-2.2 1.2-2.9 2.2-.5.6-.8 1.3-.9 1.9-.1.6-.1 1 .2 1.2 1.1.6 2.5.9 4.2 1 1.7.1 3.3-.2 4.6-.8.2-.1.3-.2.5-.3.2-.1.3-.2.4-.2h.3v-4.5h-.4z" fill="#E05014" stroke="#E05014" stroke-width=".5" stroke-miterlimit="10"/><path d="M200.8 32.4c.7 0 1.4-.1 2 0 .9-.5 1.6-1.2 1.9-2.1.4-.9.5-1.9.3-2.9s-.5-1.8-1.2-2.4c-.4-.4-1-.5-1.8-.5s-1.7.3-2.5.7c-.8.4-1.3.9-1.6 1.5-.3.6-.4 1.1-.1 1.7.2.4.2.7.2.9 0 .2-.2.4-.6.5-.2.1-.3.1-.5.2s-.4.1-.7 0c-.2 0-.4-.2-.5-.4-.2-.8-.2-1.7.1-2.6.2-.9.6-1.7 1.2-2.2.5-.4 1-.8 1.7-1.2.7-.3 1.3-.5 2-.5 1.5-.1 2.7.3 3.8 1 1.1.8 1.8 1.8 2.1 3 .4 1.4.1 3-.7 4.7-.2.3-.3.6-.5.8 2.3.6 3.7 2.1 4.3 4.4.4 1.7.1 3.4-.8 5.2-1 1.8-2.2 3.1-3.9 3.8-.7.3-1.5.5-2.3.4-.8-.1-1.7-.3-2.5-.7-.8-.4-1.5-.8-2.2-1.4-1.6-1.4-2.7-3.5-3.3-6.3-.1-.5-.1-.8-.1-1.1.1-.2.3-.4.8-.4 1-.2 1.6 0 1.6.5 0 1.3.4 2.7 1 4 .6 1.3 1.6 2.4 2.7 3.2.6.4 1.3.6 2 .7.8 0 1.5-.1 2.1-.4 1.3-.6 2.2-1.7 2.7-3.3.4-1 .6-2.1.5-3.2-.1-1.1-.4-2-.9-2.7-.5-.6-1-.9-1.4-1.1-.4-.1-1.1-.1-2.1 0-.5.4-1.1.6-1.7.9-.4.2-.8.3-1 .2-.2-.1-.4-.3-.5-.8-.1-.2-.1-.5-.1-.7-.1-.2-.1-.5 0-.9.1-.3.3-.5.5-.5zm25.2-4.5c-.4-1.6-1.2-2.5-2.4-2.8-.6-.2-1.3-.2-1.9 0-.6.1-1.2.4-1.6.8-.8.7-1.5 1.7-2.1 2.8-.6 1.1-1 2.4-1.2 3.8-.2 1.2-.3 2.4-.2 3.5 1.1-1.6 2.3-2.8 3.6-3.6 1.2-.8 2.7-1 4.3-.6.8.2 1.6.5 2.2 1 .7.5 1.2 1.1 1.5 1.7.3.7.5 1.5.5 2.4 0 .9-.3 1.8-.7 2.7-.7 1.6-1.8 2.8-3.2 3.6-1.6.8-3.2 1-4.8.5-1-.3-1.8-.7-2.6-1.3-.7-.6-1.2-1.3-1.5-2 0-.1-.1-.3-.1-.4-.3-.1-.6-.2-.8-.4-.2-.2-.3-.3-.2-.5.2-.3.3-.7.6-1.1-.5-3.4-.1-6.7 1.2-10.1.4-1.1 1.1-2 2-2.8.9-.8 1.9-1.4 3-1.8 1.3-.4 2.6-.3 4.1.3 1 .4 1.8 1.5 2.6 3.2.2.4.2.7.2.9-.1.2-.3.4-.6.5-.2.1-.4.1-.6.2h-.7c-.4-.1-.5-.3-.6-.5zm-8.9 11.4c.1.3.2.6.3.8.2.4.6.9 1.1 1.2.5.4 1.2.7 1.9.8 1.3.3 2.4.2 3.5-.4.7-.4 1.3-.9 1.9-1.6.5-.7.9-1.5 1.1-2.3.2-.9.1-1.7-.2-2.5-.3-.8-.9-1.3-1.5-1.6-.7-.3-1.5-.4-2.4-.3-.9.1-1.7.5-2.5 1.1-1.1.8-2.1 2.1-2.9 4.1-.2.3-.2.5-.3.7zm29.7-14.4c-1.7-.1-4.1-.1-7.1-.1h-2.8c-.2 1.3-.3 2.2-.4 2.8-.1.6-.2 1.4-.4 2.3-.2.9-.3 1.6-.5 2.1-.2.4-.3.6-.5.7.5-.1 1.2-.3 2.2-.5.9-.3 1.7-.5 2.3-.6.6-.2 1.3-.2 2-.2s1.4.1 2 .4c1.1.5 1.9 1.5 2.5 2.9.6 1.4.8 3 .7 4.7-.1 1.8-.7 3.4-2 4.7-1.3 1.4-3 2.2-4.9 2.3-2 .2-3.8-.3-5.3-1.4-1.4-1-2.2-2.7-2.6-5-.1-.5-.2-.9-.1-1.1.1-.2.3-.4.8-.4.1-.1.4-.1.9 0s.7.2.7.5c0 1 .2 2 .7 3 .5 1.1 1.2 1.8 2.1 2.3.9.4 1.9.6 3 .5 1.1-.1 2.1-.5 2.9-1.1.7-.5 1.3-1.3 1.8-2.2.4-1 .7-2 .7-3.2 0-1.3-.3-2.5-.8-3.5-.6-1-1.3-1.6-2.1-1.8-.6-.2-1.2-.2-1.9-.1s-1.4.2-2.1.4c-.7.2-1.4.3-2 .5-.6.1-1.2.2-1.6.2-.5 0-.8-.1-.9-.4-.3-.5-.4-1.2-.4-1.9 0-.8.1-1.5.2-2.1.1-.6.3-1.4.6-2.4.2-1 .4-1.7.5-2.2-.2 0-.4-.1-.5-.2-.1-.1-.1-.4-.1-.7 0-.1 0-.2.1-.4 0-.1 0-.3.1-.5s.1-.4.2-.5c.1-.1.2-.1.4-.1.1 0 .2 0 .3.1.1-.1.4-.1.7-.1.8 0 1.3.2 1.4.6 1.6.3 3 .4 4.3.4 1.9-.1 3.4-.3 4.6-.7.4-.1.7-.1.9 0 .2.1.3.4.4.8.1.2.1.5 0 .9-.5.1-.7.3-1 .3z" fill="#3D946A" stroke="#3D946A" stroke-width=".5" stroke-miterlimit="10"/><path d="M255.1 42c.3.9.3 1.8 0 2.5s-.8 1.1-1.5.9c-.3-.1-.6-.4-.7-.9-.2-.5-.2-1 0-1.6.1-.3.2-.6.4-.7.2-.1.3-.2.5-.2.6-.5 1.1-.5 1.3 0zm5.2-8.4c0-1.9-.1-3.3-.3-4.3 0-.4 0-.7.1-.9.1-.2.4-.3.8-.3.2 0 .4 0 .6.1.2 0 .4.1.6.2.2.1.3.3.2.5-.1.5-.1 1-.2 1.5.4-.4.8-.8 1.2-1.1.8-.6 2.1-1.1 4.1-1.6.4-.1.8-.2 1-.1.2.1.3.3.4.8.1.1.1.4 0 .9s-.2.7-.5.7c-2.4-.1-4.2.3-5.2 1.4-.8.9-1.2 2.1-1.1 3.5 0 .4 0 .7-.2.8 0 1.1.1 2.2.2 3.4.2 2.5.5 4.7 1 6.6.2.4.3.8.2 1-.1.2-.3.4-.7.5-.1 0-.2 0-.4.1-.1 0-.3.1-.5.1s-.4 0-.5-.1c-.1-.1-.2-.2-.2-.3-.1-1.1-.2-2.7-.3-5.1-.1-2.3-.2-4.2-.3-5.4v-.6c-.6-.2-.8-.4-.7-.8.2-.5.4-1 .7-1.5zm16.3-3.7c-1.1 3.9-1.3 7.1-.7 9.5.2.9.6 1.6 1.2 2.3.5.7 1.2 1.1 1.8 1.4.7.3 1.5.4 2.3.2.8-.2 1.5-.5 2.1-1.1.7-.6 1.2-1.5 1.5-2.7.3-1.2.5-2.3.5-3.4 0-.9-.2-2.2-.5-3.9-.3-1.7-.5-2.8-.6-3.3-.1-.5-.1-.9-.1-1.1.1-.2.3-.4.8-.4h.9c.5 0 .7.2.7.5 0 .7.1 2.2.3 4.3.2 2.2.3 3.9.2 5.2 0 .9-.2 1.9-.6 2.8-.3.9-.8 1.7-1.3 2.3-.7.9-1.6 1.5-2.5 2-.9.5-1.9.6-2.8.4-1.3-.2-2.5-1-3.6-2.3-1.1-1.3-1.9-2.8-2.3-4.7-.1-.4-.2-.8-.2-1.3s-.1-.9-.1-1.2c0-.4 0-.8.1-1.4.1-.6.1-1 .2-1.3 0-.3.1-.8.2-1.4.1-.6.2-1.1.2-1.3.1-.4.2-.7.3-.8.1-.1.4-.2.8-.1.2 0 .4.1.6.1.2.1.4.2.6.4.2.2.1.1 0 .3z" fill="#E05014" stroke="#E05014" stroke-width=".5" stroke-miterlimit="10"/></g><defs><clipPath id="clip0"><path fill="#fff" d="M0 0h290v65H0z"/></clipPath></defs></svg>