<svg width="44" height="44" viewBox="0 0 44 44" fill="none" xmlns="http://www.w3.org/2000/svg">
<path fill-rule="evenodd" clip-rule="evenodd" d="M22 43.6C27.7287 43.6 33.2227 41.3243 37.2735 37.2735C41.3243 33.2227 43.6 27.7287 43.6 22C43.6 16.2713 41.3243 10.7773 37.2735 6.72649C33.2227 2.6757 27.7287 0.399994 22 0.399994C16.2713 0.399994 10.7773 2.6757 6.72652 6.72649C2.67573 10.7773 0.400024 16.2713 0.400024 22C0.400024 27.7287 2.67573 33.2227 6.72652 37.2735C10.7773 41.3243 16.2713 43.6 22 43.6ZM32.0089 20.0911L23.9089 11.9911C23.3997 11.4993 22.7177 11.2271 22.0097 11.2333C21.3018 11.2394 20.6246 11.5234 20.124 12.024C19.6234 12.5246 19.3395 13.2018 19.3333 13.9097C19.3272 14.6176 19.5993 15.2997 20.0911 15.8089L23.5822 19.3H13.9C13.1839 19.3 12.4972 19.5845 11.9908 20.0908C11.4845 20.5972 11.2 21.2839 11.2 22C11.2 22.7161 11.4845 23.4028 11.9908 23.9092C12.4972 24.4155 13.1839 24.7 13.9 24.7H23.5822L20.0911 28.1911C19.8332 28.4402 19.6276 28.7381 19.486 29.0675C19.3445 29.3969 19.2701 29.7512 19.2669 30.1097C19.2638 30.4682 19.3321 30.8237 19.4679 31.1556C19.6037 31.4874 19.8041 31.7888 20.0577 32.0424C20.3112 32.2959 20.6126 32.4963 20.9444 32.6321C21.2763 32.7679 21.6318 32.8362 21.9903 32.8331C22.3488 32.83 22.7031 32.7555 23.0325 32.614C23.3619 32.4725 23.6599 32.2668 23.9089 32.0089L32.0089 23.9089C32.5151 23.4026 32.7994 22.7159 32.7994 22C32.7994 21.284 32.5151 20.5974 32.0089 20.0911Z" fill="white"/>
</svg>
