<svg width="21" height="21" viewBox="0 0 21 21" fill="none" xmlns="http://www.w3.org/2000/svg">
<path d="M1.125 1.125H3.20833L3.625 3.20833L1.125 1.125ZM5.29167 11.5417H15.7083L19.875 3.20833H3.625L5.29167 11.5417ZM5.29167 11.5417L3.625 3.20833L5.29167 11.5417ZM5.29167 11.5417L2.90312 13.9302C2.24687 14.5865 2.71146 15.7083 3.63958 15.7083H15.7083L5.29167 11.5417ZM15.7083 15.7083C15.1558 15.7083 14.6259 15.9278 14.2352 16.3185C13.8445 16.7092 13.625 17.2391 13.625 17.7917C13.625 18.3442 13.8445 18.8741 14.2352 19.2648C14.6259 19.6555 15.1558 19.875 15.7083 19.875C16.2609 19.875 16.7908 19.6555 17.1815 19.2648C17.5722 18.8741 17.7917 18.3442 17.7917 17.7917C17.7917 17.2391 17.5722 16.7092 17.1815 16.3185C16.7908 15.9278 16.2609 15.7083 15.7083 15.7083ZM7.375 17.7917C7.375 18.3442 7.15551 18.8741 6.76481 19.2648C6.3741 19.6555 5.8442 19.875 5.29167 19.875C4.73913 19.875 4.20923 19.6555 3.81853 19.2648C3.42783 18.8741 3.20833 18.3442 3.20833 17.7917C3.20833 17.2391 3.42783 16.7092 3.81853 16.3185C4.20923 15.9278 4.73913 15.7083 5.29167 15.7083C5.8442 15.7083 6.3741 15.9278 6.76481 16.3185C7.15551 16.7092 7.375 17.2391 7.375 17.7917V17.7917Z" stroke="#6B7786" stroke-width="2" stroke-linecap="round" stroke-linejoin="round"/>
</svg>
