<svg width="21" height="19" viewBox="0 0 21 19" fill="none" xmlns="http://www.w3.org/2000/svg">
<path d="M2.49793 2.58124C2.06265 3.01651 1.71736 3.53326 1.48179 4.10198C1.24622 4.6707 1.12497 5.28025 1.12497 5.89582C1.12497 6.5114 1.24622 7.12095 1.48179 7.68966C1.71736 8.25838 2.06265 8.77513 2.49793 9.21041L10.5 17.2125L18.5021 9.21041C19.3812 8.33132 19.875 7.13903 19.875 5.89582C19.875 4.65261 19.3812 3.46032 18.5021 2.58124C17.623 1.70216 16.4307 1.20829 15.1875 1.20829C13.9443 1.20829 12.752 1.70216 11.8729 2.58124L10.5 3.95416L9.12709 2.58124C8.69182 2.14596 8.17507 1.80068 7.60635 1.5651C7.03763 1.32953 6.42809 1.20828 5.81251 1.20828C5.19693 1.20828 4.58739 1.32953 4.01867 1.5651C3.44995 1.80068 2.9332 2.14596 2.49793 2.58124V2.58124Z" stroke="#6B7786" stroke-width="2" stroke-linecap="round" stroke-linejoin="round"/>
</svg>
