<svg width="25" height="25" viewBox="0 0 25 25" fill="none" xmlns="http://www.w3.org/2000/svg">
<path d="M4.49793 6.58124C4.06265 7.01651 3.71736 7.53326 3.48179 8.10198C3.24622 8.6707 3.12497 9.28025 3.12497 9.89582C3.12497 10.5114 3.24622 11.1209 3.48179 11.6897C3.71736 12.2584 4.06265 12.7751 4.49793 13.2104L12.5 21.2125L20.5021 13.2104C21.3812 12.3313 21.875 11.139 21.875 9.89582C21.875 8.65261 21.3812 7.46032 20.5021 6.58124C19.623 5.70216 18.4307 5.20829 17.1875 5.20829C15.9443 5.20829 14.752 5.70216 13.8729 6.58124L12.5 7.95416L11.1271 6.58124C10.6918 6.14596 10.1751 5.80068 9.60635 5.5651C9.03763 5.32953 8.42809 5.20828 7.81251 5.20828C7.19693 5.20828 6.58739 5.32953 6.01867 5.5651C5.44995 5.80068 4.9332 6.14596 4.49793 6.58124V6.58124Z" stroke="#6B7786" stroke-width="2" stroke-linecap="round" stroke-linejoin="round"/>
</svg>
