<svg width="24" height="22" viewBox="0 0 24 22" fill="none" xmlns="http://www.w3.org/2000/svg">
<path d="M14.9143 10.8068H9.19289H14.9143ZM20.6357 10.8068C20.6357 11.847 20.4138 12.877 19.9825 13.838C19.5512 14.799 18.919 15.6722 18.1221 16.4078C17.3252 17.1433 16.3791 17.7267 15.3379 18.1248C14.2966 18.5229 13.1806 18.7278 12.0536 18.7278C10.9266 18.7278 9.8106 18.5229 8.76936 18.1248C7.72813 17.7267 6.78204 17.1433 5.98512 16.4078C5.18819 15.6722 4.55604 14.799 4.12474 13.838C3.69345 12.877 3.47147 11.847 3.47147 10.8068C3.47147 8.70597 4.37565 6.69123 5.98512 5.20575C7.59458 3.72028 9.77748 2.88574 12.0536 2.88574C14.3297 2.88574 16.5126 3.72028 18.1221 5.20575C19.7316 6.69123 20.6357 8.70597 20.6357 10.8068Z" stroke="#6B7786" stroke-width="2" stroke-linecap="round" stroke-linejoin="round"/>
</svg>
