<svg width="24" height="22" viewBox="0 0 24 22" fill="none" xmlns="http://www.w3.org/2000/svg">
<path d="M11.6536 8.16642V10.8068V8.16642ZM11.6536 10.8068V13.4471V10.8068ZM11.6536 10.8068H14.5143H11.6536ZM11.6536 10.8068H8.7929H11.6536ZM20.2358 10.8068C20.2358 11.847 20.0138 12.877 19.5825 13.838C19.1512 14.799 18.519 15.6722 17.7221 16.4078C16.9252 17.1433 15.9791 17.7267 14.9379 18.1248C13.8966 18.5229 12.7806 18.7278 11.6536 18.7278C10.5266 18.7278 9.4106 18.5229 8.36937 18.1248C7.32814 17.7267 6.38205 17.1433 5.58512 16.4078C4.7882 15.6722 4.15604 14.799 3.72475 13.838C3.29346 12.877 3.07147 11.847 3.07147 10.8068C3.07147 8.70597 3.97566 6.69123 5.58512 5.20575C7.19459 3.72028 9.37749 2.88574 11.6536 2.88574C13.9297 2.88574 16.1126 3.72028 17.7221 5.20575C19.3316 6.69123 20.2358 8.70597 20.2358 10.8068Z" stroke="#6B7786" stroke-width="2" stroke-linecap="round" stroke-linejoin="round"/>
</svg>
