<svg width="22" height="22" viewBox="0 0 22 22" fill="none" xmlns="http://www.w3.org/2000/svg">
<path fill-rule="evenodd" clip-rule="evenodd" d="M0 9C0 13.9706 4.02944 18 9 18C13.9681 17.9939 17.9939 13.9681 18 9C18 4.02944 13.9706 0 9 0C4.02944 0 0 4.02944 0 9ZM2 9C2 5.13401 5.13401 2 9 2C12.8642 2.00441 15.9956 5.13583 16 9C16 12.866 12.866 16 9 16C5.13401 16 2 12.866 2 9Z" fill="#606060"/>
<path d="M6 9H4C4.00331 6.23995 6.23995 4.00331 9 4V6C7.34315 6 6 7.34315 6 9Z" fill="#606060"/>
<path d="M21.707 20.293L17.451 16.037C17.0237 16.5503 16.5504 17.0236 16.037 17.451L20.293 21.707C20.6854 22.086 21.3091 22.0805 21.6948 21.6948C22.0806 21.3091 22.086 20.6854 21.707 20.293Z" fill="#606060"/>
</svg>
