<svg width="25" height="25" viewBox="0 0 25 25" fill="none" xmlns="http://www.w3.org/2000/svg">
<path d="M3.125 3.125H5.20833L5.625 5.20833L3.125 3.125ZM7.29167 13.5417H17.7083L21.875 5.20833H5.625L7.29167 13.5417ZM7.29167 13.5417L5.625 5.20833L7.29167 13.5417ZM7.29167 13.5417L4.90312 15.9302C4.24687 16.5865 4.71146 17.7083 5.63958 17.7083H17.7083L7.29167 13.5417ZM17.7083 17.7083C17.1558 17.7083 16.6259 17.9278 16.2352 18.3185C15.8445 18.7092 15.625 19.2391 15.625 19.7917C15.625 20.3442 15.8445 20.8741 16.2352 21.2648C16.6259 21.6555 17.1558 21.875 17.7083 21.875C18.2609 21.875 18.7908 21.6555 19.1815 21.2648C19.5722 20.8741 19.7917 20.3442 19.7917 19.7917C19.7917 19.2391 19.5722 18.7092 19.1815 18.3185C18.7908 17.9278 18.2609 17.7083 17.7083 17.7083ZM9.375 19.7917C9.375 20.3442 9.15551 20.8741 8.76481 21.2648C8.3741 21.6555 7.8442 21.875 7.29167 21.875C6.73913 21.875 6.20923 21.6555 5.81853 21.2648C5.42783 20.8741 5.20833 20.3442 5.20833 19.7917C5.20833 19.2391 5.42783 18.7092 5.81853 18.3185C6.20923 17.9278 6.73913 17.7083 7.29167 17.7083C7.8442 17.7083 8.3741 17.9278 8.76481 18.3185C9.15551 18.7092 9.375 19.2391 9.375 19.7917V19.7917Z" stroke="#6B7786" stroke-width="2" stroke-linecap="round" stroke-linejoin="round"/>
</svg>
