<svg width="20" height="20" viewBox="0 0 20 20" fill="none" xmlns="http://www.w3.org/2000/svg">
<path d="M2.78033 2.44617H4.36962L4.68748 4.06654L2.78033 2.44617ZM5.95891 10.548H13.9053L17.0839 4.06654H4.68748L5.95891 10.548ZM5.95891 10.548L4.68748 4.06654L5.95891 10.548ZM5.95891 10.548L4.13679 12.4058C3.63616 12.9162 3.99058 13.7888 4.6986 13.7888H13.9053L5.95891 10.548ZM13.9053 13.7888C13.4838 13.7888 13.0796 13.9595 12.7815 14.2634C12.4835 14.5672 12.316 14.9794 12.316 15.4091C12.316 15.8389 12.4835 16.251 12.7815 16.5549C13.0796 16.8588 13.4838 17.0295 13.9053 17.0295C14.3268 17.0295 14.7311 16.8588 15.0291 16.5549C15.3272 16.251 15.4946 15.8389 15.4946 15.4091C15.4946 14.9794 15.3272 14.5672 15.0291 14.2634C14.7311 13.9595 14.3268 13.7888 13.9053 13.7888ZM7.54819 15.4091C7.54819 15.8389 7.38075 16.251 7.0827 16.5549C6.78465 16.8588 6.38041 17.0295 5.95891 17.0295C5.5374 17.0295 5.13316 16.8588 4.83511 16.5549C4.53706 16.251 4.36962 15.8389 4.36962 15.4091C4.36962 14.9794 4.53706 14.5672 4.83511 14.2634C5.13316 13.9595 5.5374 13.7888 5.95891 13.7888C6.38041 13.7888 6.78465 13.9595 7.0827 14.2634C7.38075 14.5672 7.54819 14.9794 7.54819 15.4091V15.4091Z" stroke="white" stroke-width="2" stroke-linecap="round" stroke-linejoin="round"/>
</svg>
